<svg width="28" height="30" viewBox="0 0 28 30" fill="none" xmlns="http://www.w3.org/2000/svg">
<path d="M21.1347 7.51117C19.8778 6.63314 18.9707 5.22827 18.6877 3.59058C18.6266 3.23674 18.593 2.87259 18.593 2.5H14.5815L14.5751 19.725C14.5076 21.6538 13.0259 23.202 11.2095 23.202C10.6449 23.202 10.1133 23.0508 9.64526 22.7869C8.57194 22.1817 7.83741 20.9763 7.83741 19.5891C7.83741 17.5969 9.35018 15.976 11.2095 15.976C11.5565 15.976 11.8895 16.0374 12.2044 16.1431V11.7553C11.8785 11.7078 11.5473 11.678 11.2095 11.678C7.13809 11.678 3.82593 15.2269 3.82593 19.5891C3.82593 22.2655 5.07397 24.634 6.97801 26.0662C8.17732 26.9683 9.63614 27.5 11.2095 27.5C15.2808 27.5 18.593 23.9513 18.593 19.5891V10.8546C20.1663 12.0645 22.094 12.7775 24.174 12.7775V8.47949C23.0535 8.47949 22.0099 8.1226 21.1347 7.51117Z" fill="white"/>
</svg>
