<svg width="25" height="21" viewBox="0 0 25 21" fill="none" xmlns="http://www.w3.org/2000/svg">
<path d="M22.1092 5.57021C22.1239 5.78326 22.1239 5.99631 22.1239 6.21132C22.1239 12.7628 17.1364 20.3186 8.01663 20.3186V20.3147C5.32261 20.3186 2.68455 19.5469 0.416626 18.0919C0.808359 18.139 1.20206 18.1626 1.59673 18.1636C3.82932 18.1655 5.99808 17.4164 7.7545 16.037C5.63286 15.9968 3.77237 14.6134 3.12243 12.5939C3.86564 12.7373 4.63143 12.7078 5.3609 12.5085C3.04781 12.0412 1.38369 10.0089 1.38369 7.64865C1.38369 7.62705 1.38369 7.60644 1.38369 7.58582C2.0729 7.9697 2.84458 8.18274 3.63394 8.20631C1.45536 6.75032 0.783814 3.85209 2.09941 1.58612C4.61671 4.68366 8.33081 6.56672 12.3178 6.76603C11.9183 5.04397 12.4641 3.23945 13.7522 2.02891C15.7492 0.151734 18.8899 0.247949 20.7671 2.24392C21.8775 2.02498 22.9417 1.61754 23.9157 1.04025C23.5455 2.18796 22.7709 3.16287 21.7361 3.78238C22.7189 3.66653 23.6791 3.40341 24.5833 3.00186C23.9176 3.99935 23.0792 4.86823 22.1092 5.57021Z" fill="white"/>
</svg>
