<svg width="28" height="18" viewBox="0 0 28 18" fill="none" xmlns="http://www.w3.org/2000/svg">
<path fill-rule="evenodd" clip-rule="evenodd" d="M24.9089 0.543954C26.113 0.840655 27.0655 1.71429 27.389 2.81868C27.982 4.82967 28 8.99999 28 8.99999C28 8.99999 28 13.1868 27.4069 15.1813C27.0834 16.2857 26.1309 17.1593 24.9268 17.456C22.7522 18 14 18 14 18C14 18 5.24775 18 3.07317 17.456C1.86906 17.1593 0.916561 16.2857 0.593069 15.1813C0 13.1703 0 8.99999 0 8.99999C0 8.99999 0 4.82967 0.575096 2.83517C0.898588 1.73077 1.85109 0.857145 3.0552 0.560444C5.22978 0.0164795 13.982 0 13.982 0C13.982 0 22.7343 0 24.9089 0.543954ZM18.457 9L11.1964 12.8571V5.14286L18.457 9Z" fill="white"/>
</svg>
