<svg width="55" height="56" viewBox="0 0 55 56" fill="none" xmlns="http://www.w3.org/2000/svg">
  <path d="M27.5 55.6836C42.5117 55.6836 54.9258 43.2695 54.9258 28.2578C54.9258 13.2188 42.5117 0.832031 27.4727 0.832031C12.4609 0.832031 0.0742188 13.2188 0.0742188 28.2578C0.0742188 43.2695 12.4883 55.6836 27.5 55.6836ZM27.5 52.1289C14.2656 52.1289 3.62891 41.4648 3.62891 28.2578C3.62891 15.0234 14.2656 4.35938 27.4727 4.35938C40.707 4.35938 51.3711 15.0234 51.3984 28.2578C51.3984 41.4648 40.7344 52.1289 27.5 52.1289ZM27.4727 33.1523C28.5117 33.1523 29.1133 32.5234 29.1406 31.375L29.4688 16.7734C29.4688 15.625 28.6211 14.8047 27.4453 14.8047C26.2695 14.8047 25.4492 15.5977 25.4766 16.7461L25.7773 31.375C25.7773 32.4961 26.4062 33.1523 27.4727 33.1523ZM27.4727 41.6289C28.8398 41.6289 30.0156 40.5352 30.0156 39.168C30.0156 37.8008 28.8672 36.707 27.4727 36.707C26.0781 36.707 24.9297 37.8008 24.9297 39.168C24.9297 40.5078 26.1055 41.6289 27.4727 41.6289Z" fill="url(#paint0_linear_353_4600)"/>
  <defs>
    <linearGradient id="paint0_linear_353_4600" x1="27.5" y1="-3" x2="27.5" y2="59" gradientUnits="userSpaceOnUse">
      <stop stop-color="#FF5A5F"/>
      <stop offset="1" stop-color="#EDE664"/>
    </linearGradient>
  </defs>
</svg>
