<svg width="14" height="9" viewBox="0 0 14 9" fill="none" xmlns="http://www.w3.org/2000/svg">
  <path d="M7 8.18213C7.08301 8.18213 7.16325 8.16553 7.24072 8.13232C7.3182 8.09359 7.38737 8.04102 7.44824 7.97461L13.7402 1.34229C13.8564 1.22607 13.9146 1.09326 13.9146 0.943848C13.9146 0.838704 13.8869 0.741862 13.8315 0.65332C13.7817 0.564779 13.7153 0.495605 13.6323 0.445801C13.5493 0.395996 13.4525 0.371094 13.3418 0.371094C13.1868 0.371094 13.0513 0.426432 12.9351 0.537109L6.63477 7.16113H7.36523L1.05664 0.537109C0.951497 0.426432 0.815918 0.371094 0.649902 0.371094C0.544759 0.371094 0.447917 0.395996 0.359375 0.445801C0.276367 0.495605 0.209961 0.564779 0.160156 0.65332C0.110352 0.741862 0.0854492 0.838704 0.0854492 0.943848C0.0854492 1.02686 0.0992839 1.10156 0.126953 1.16797C0.160156 1.23438 0.204427 1.29525 0.259766 1.35059L6.55176 7.97461C6.6901 8.11296 6.83952 8.18213 7 8.18213Z" fill="#999999"/>
</svg>
