<svg width="16" height="15" viewBox="0 0 16 15" fill="none" xmlns="http://www.w3.org/2000/svg">
  <path d="M6.25684 14.3364C6.61377 14.3364 6.896 14.1787 7.09521 13.8716L14.9395 1.52002C15.0889 1.2793 15.147 1.09668 15.147 0.905762C15.147 0.449219 14.8481 0.150391 14.3916 0.150391C14.0596 0.150391 13.877 0.258301 13.6777 0.57373L6.22363 12.4521L2.35547 7.38867C2.14795 7.09814 1.94043 6.98193 1.6416 6.98193C1.16846 6.98193 0.844727 7.30566 0.844727 7.76221C0.844727 7.95312 0.927734 8.16895 1.08545 8.36816L5.39355 13.855C5.64258 14.1787 5.8999 14.3364 6.25684 14.3364Z" fill="#F7F7F7"/>
</svg>
