<svg width="13" height="21" viewBox="0 0 13 21" fill="none" xmlns="http://www.w3.org/2000/svg">
<path d="M0.992188 10.5391C0.992188 10.7734 1.07422 10.9727 1.25 11.1367L10.625 20.0547C10.7773 20.207 10.9766 20.2891 11.1992 20.2891C11.6562 20.2891 12.0078 19.9492 12.0078 19.4805C12.0078 19.2578 11.9141 19.0586 11.7852 18.918L2.97266 10.5391L11.7852 2.16016C11.9141 2.00781 12.0078 1.80859 12.0078 1.58594C12.0078 1.12891 11.6562 0.777344 11.1992 0.777344C10.9766 0.777344 10.7773 0.859375 10.625 1.01172L1.25 9.94141C1.07422 10.1055 0.992188 10.3047 0.992188 10.5391Z" fill="#FF5A5F"/>
</svg>
