<svg width="18" height="19" viewBox="0 0 18 19" fill="none" xmlns="http://www.w3.org/2000/svg">
<path d="M9 18.4697C13.8252 18.4697 17.8154 14.4795 17.8154 9.6543C17.8154 4.82031 13.8252 0.838867 8.99121 0.838867C4.16602 0.838867 0.18457 4.82031 0.18457 9.6543C0.18457 14.4795 4.1748 18.4697 9 18.4697ZM9 17.3271C4.74609 17.3271 1.32715 13.8994 1.32715 9.6543C1.32715 5.40039 4.74609 1.97266 8.99121 1.97266C13.2451 1.97266 16.6729 5.40039 16.6816 9.6543C16.6816 13.8994 13.2539 17.3271 9 17.3271ZM5.93262 13.2842C6.09082 13.2842 6.22266 13.2227 6.33691 13.1084L8.99121 10.4453L11.6631 13.1084C11.7773 13.2227 11.9092 13.2842 12.0674 13.2842C12.375 13.2842 12.6211 13.0381 12.6211 12.7305C12.6211 12.5723 12.5596 12.4492 12.4453 12.335L9.77344 9.66309L12.4541 6.98242C12.5771 6.85938 12.6211 6.74512 12.6211 6.58691C12.6211 6.28809 12.375 6.04199 12.0674 6.04199C11.9268 6.04199 11.8037 6.09473 11.6807 6.22656L8.99121 8.88965L6.32812 6.22656C6.21387 6.1123 6.09082 6.05957 5.93262 6.05957C5.625 6.05957 5.37891 6.28809 5.37891 6.5957C5.37891 6.74512 5.43164 6.87695 5.5459 6.99121L8.21777 9.66309L5.5459 12.3438C5.43164 12.4492 5.37891 12.5811 5.37891 12.7305C5.37891 13.0381 5.625 13.2842 5.93262 13.2842Z" fill="#F7F7F7"/>
</svg>
