<svg width="24" height="20" viewBox="0 0 24 20" fill="none" xmlns="http://www.w3.org/2000/svg">
<path d="M15.2959 6.27051C16.1924 6.27051 16.9482 5.67285 17.1943 4.84668H20.1738C20.4551 4.84668 20.7012 4.60938 20.7012 4.31055C20.7012 4.00293 20.4551 3.76562 20.1738 3.76562H17.1943C16.9658 2.93066 16.1924 2.31543 15.2959 2.31543C14.3906 2.31543 13.626 2.93066 13.3887 3.76562H3.83496C3.52734 3.76562 3.29004 4.00293 3.29004 4.31055C3.29004 4.60938 3.52734 4.84668 3.83496 4.84668H13.3975C13.6348 5.67285 14.3994 6.27051 15.2959 6.27051ZM15.2959 5.37402C14.6895 5.37402 14.2148 4.89062 14.2148 4.29297C14.2148 3.67773 14.6895 3.21191 15.2959 3.21191C15.9023 3.21191 16.377 3.67773 16.377 4.29297C16.377 4.89062 15.9023 5.37402 15.2959 5.37402ZM3.80859 9.13574C3.52734 9.13574 3.29004 9.37305 3.29004 9.68066C3.29004 9.97949 3.52734 10.2256 3.80859 10.2256H7.0166C7.25391 11.0518 8.01855 11.667 8.91504 11.667C9.82031 11.667 10.585 11.0518 10.8223 10.2256H20.1562C20.4551 10.2256 20.7012 9.97949 20.7012 9.68066C20.7012 9.37305 20.4551 9.13574 20.1562 9.13574H10.8135C10.5762 8.31836 9.81152 7.71191 8.91504 7.71191C8.01855 7.71191 7.25391 8.31836 7.0166 9.13574H3.80859ZM8.91504 10.7617C8.30859 10.7617 7.83398 10.2871 7.83398 9.68066C7.83398 9.07422 8.30859 8.59961 8.91504 8.59961C9.52148 8.59961 9.99609 9.07422 9.99609 9.68066C9.99609 10.2871 9.52148 10.7617 8.91504 10.7617ZM15.2959 17.0371C16.1924 17.0371 16.957 16.4219 17.1943 15.5957H20.1738C20.4551 15.5957 20.7012 15.3584 20.7012 15.0508C20.7012 14.752 20.4551 14.5146 20.1738 14.5146H17.1943C16.957 13.6885 16.1924 13.082 15.2959 13.082C14.3994 13.082 13.6348 13.6885 13.3975 14.5146H3.83496C3.52734 14.5146 3.29004 14.752 3.29004 15.0508C3.29004 15.3584 3.52734 15.5957 3.83496 15.5957H13.3887C13.626 16.4219 14.3906 17.0371 15.2959 17.0371ZM15.2959 16.1406C14.6895 16.1406 14.2148 15.6572 14.2148 15.0508C14.2148 14.4443 14.6895 13.9785 15.2959 13.9785C15.9023 13.9785 16.377 14.4443 16.377 15.0508C16.377 15.6572 15.9023 16.1406 15.2959 16.1406Z" fill="#999999"/>
</svg>
