<svg width="24" height="21" viewBox="0 0 24 21" fill="none" xmlns="http://www.w3.org/2000/svg">
<path d="M15.2959 7.27051C16.1924 7.27051 16.9482 6.67285 17.1943 5.84668H20.1738C20.4551 5.84668 20.7012 5.60938 20.7012 5.31055C20.7012 5.00293 20.4551 4.76562 20.1738 4.76562H17.1943C16.9658 3.93066 16.1924 3.31543 15.2959 3.31543C14.3906 3.31543 13.626 3.93066 13.3887 4.76562H3.83496C3.52734 4.76562 3.29004 5.00293 3.29004 5.31055C3.29004 5.60938 3.52734 5.84668 3.83496 5.84668H13.3975C13.6348 6.67285 14.3994 7.27051 15.2959 7.27051ZM15.2959 6.37402C14.6895 6.37402 14.2148 5.89062 14.2148 5.29297C14.2148 4.67773 14.6895 4.21191 15.2959 4.21191C15.9023 4.21191 16.377 4.67773 16.377 5.29297C16.377 5.89062 15.9023 6.37402 15.2959 6.37402ZM3.80859 10.1357C3.52734 10.1357 3.29004 10.373 3.29004 10.6807C3.29004 10.9795 3.52734 11.2256 3.80859 11.2256H7.0166C7.25391 12.0518 8.01855 12.667 8.91504 12.667C9.82031 12.667 10.585 12.0518 10.8223 11.2256H20.1562C20.4551 11.2256 20.7012 10.9795 20.7012 10.6807C20.7012 10.373 20.4551 10.1357 20.1562 10.1357H10.8135C10.5762 9.31836 9.81152 8.71191 8.91504 8.71191C8.01855 8.71191 7.25391 9.31836 7.0166 10.1357H3.80859ZM8.91504 11.7617C8.30859 11.7617 7.83398 11.2871 7.83398 10.6807C7.83398 10.0742 8.30859 9.59961 8.91504 9.59961C9.52148 9.59961 9.99609 10.0742 9.99609 10.6807C9.99609 11.2871 9.52148 11.7617 8.91504 11.7617ZM15.2959 18.0371C16.1924 18.0371 16.957 17.4219 17.1943 16.5957H20.1738C20.4551 16.5957 20.7012 16.3584 20.7012 16.0508C20.7012 15.752 20.4551 15.5146 20.1738 15.5146H17.1943C16.957 14.6885 16.1924 14.082 15.2959 14.082C14.3994 14.082 13.6348 14.6885 13.3975 15.5146H3.83496C3.52734 15.5146 3.29004 15.752 3.29004 16.0508C3.29004 16.3584 3.52734 16.5957 3.83496 16.5957H13.3887C13.626 17.4219 14.3906 18.0371 15.2959 18.0371ZM15.2959 17.1406C14.6895 17.1406 14.2148 16.6572 14.2148 16.0508C14.2148 15.4443 14.6895 14.9785 15.2959 14.9785C15.9023 14.9785 16.377 15.4443 16.377 16.0508C16.377 16.6572 15.9023 17.1406 15.2959 17.1406Z" fill="#F7F7F7"/>
</svg>
