<svg width="17" height="17" viewBox="0 0 17 17" fill="none" xmlns="http://www.w3.org/2000/svg">
    <path d="M8.234 16.195c4.29 0 7.836-3.547 7.836-7.836 0-4.296-3.547-7.836-7.843-7.836C3.937.523.398 4.063.398 8.36c0 4.29 3.547 7.836 7.836 7.836zm0-1.015a6.807 6.807 0 0 1-6.82-6.82A6.807 6.807 0 0 1 8.227 1.53a6.827 6.827 0 0 1 6.835 6.828 6.813 6.813 0 0 1-6.828 6.82zm-.843-3.11c.195 0 .359-.101.476-.28l3.797-5.93c.07-.11.14-.25.14-.376 0-.265-.242-.445-.492-.445-.156 0-.304.094-.421.266L7.359 10.89 5.563 8.67c-.141-.187-.282-.241-.446-.241a.472.472 0 0 0-.469.476.66.66 0 0 0 .141.383l2.086 2.5c.156.195.313.281.516.281z" fill="url(#pmm1kjyfha)"/>
    <defs>
        <linearGradient id="pmm1kjyfha" x1="8.5" y1="-4" x2="8.5" y2="20" gradientUnits="userSpaceOnUse">
            <stop stop-color="#40B9FF"/>
            <stop offset="1" stop-color="#34ED55"/>
        </linearGradient>
    </defs>
</svg>
