<svg width="55" height="61" viewBox="0 0 55 61" fill="none" xmlns="http://www.w3.org/2000/svg">
<path d="M27.5 60.6836C42.5117 60.6836 54.9258 48.2695 54.9258 33.2578C54.9258 26.8047 52.6289 20.8164 48.8281 16.1133L51.5352 13.3516C52.0547 12.832 52.3281 12.1758 52.3281 11.5742C52.3281 10.3438 51.3438 9.35938 50.0586 9.35938C49.3477 9.35938 48.8008 9.57812 48.2812 10.0977L45.6016 12.75C41.3086 8.94922 35.8125 6.43359 29.8242 5.91406V2.44141C29.8242 1.10156 28.7852 0.0078125 27.4727 0.0078125C26.1875 0.0078125 25.1484 1.10156 25.1484 2.44141V5.91406C11.2031 7.14453 0.0742188 19.0117 0.0742188 33.2578C0.0742188 48.2695 12.4883 60.6836 27.5 60.6836ZM27.5 57.1289C14.2656 57.1289 3.62891 46.4648 3.62891 33.2578C3.62891 20.0234 14.2656 9.35938 27.4727 9.35938C40.707 9.35938 51.3711 20.0234 51.3984 33.2578C51.3984 46.4648 40.7344 57.1289 27.5 57.1289ZM27.5 37.1406C29.6328 37.1406 31.3281 35.4453 31.3281 33.2852C31.3281 31.7812 30.4531 30.4961 29.0039 29.7852V14.9922C29.0039 14.1445 28.3477 13.5156 27.4727 13.5156C26.6523 13.5156 25.9961 14.1445 25.9961 14.9922V29.7578C24.5469 30.4688 23.6719 31.7812 23.6719 33.2852C23.6719 35.418 25.3398 37.1406 27.5 37.1406Z" fill="url(#paint0_linear_169_6322)"/>
<defs>
<linearGradient id="paint0_linear_169_6322" x1="27.5" y1="2" x2="27.5" y2="64" gradientUnits="userSpaceOnUse">
<stop stop-color="#FF5A5F"/>
<stop offset="1" stop-color="#EDE664"/>
</linearGradient>
</defs>
</svg>
