<svg width="17" height="20" viewBox="0 0 17 20" fill="none" xmlns="http://www.w3.org/2000/svg">
<path d="M8.59473 13.6348C8.73535 13.6348 8.8584 13.5908 8.99023 13.459L12.0752 10.4355C12.1807 10.3301 12.2334 10.2246 12.2334 10.084C12.2334 9.80273 12.0225 9.60059 11.7412 9.60059C11.6094 9.60059 11.4688 9.65332 11.3721 9.76758L9.87793 11.3145L9.0957 12.123L9.13086 10.8486V1.11035C9.13086 0.829102 8.89355 0.583008 8.59473 0.583008C8.30469 0.583008 8.05859 0.829102 8.05859 1.11035V10.8486L8.10254 12.1318L7.31152 11.3145L5.81738 9.76758C5.7207 9.65332 5.57129 9.60059 5.43945 9.60059C5.1582 9.60059 4.95605 9.80273 4.95605 10.084C4.95605 10.2246 5.00879 10.3301 5.11426 10.4355L8.20801 13.459C8.33984 13.5908 8.46289 13.6348 8.59473 13.6348ZM3.54102 19.2949H13.6572C15.3711 19.2949 16.25 18.416 16.25 16.7285V7.74609C16.25 6.0498 15.3711 5.1709 13.6572 5.1709H11.1523V6.26074H13.6309C14.6064 6.26074 15.1602 6.78809 15.1602 7.79883V16.667C15.1602 17.6865 14.6064 18.2051 13.6309 18.2051H3.55859C2.57422 18.2051 2.03809 17.6865 2.03809 16.667V7.79883C2.03809 6.78809 2.57422 6.26074 3.55859 6.26074H6.05469V5.1709H3.54102C1.82715 5.1709 0.948242 6.04102 0.948242 7.74609V16.7285C0.948242 18.4248 1.82715 19.2949 3.54102 19.2949Z" fill="#F7F7F7"/>
</svg>
