<svg width="18" height="22" viewBox="0 0 18 22" fill="none" xmlns="http://www.w3.org/2000/svg">
<path d="M8.99023 14.8164C9.14648 14.8164 9.2832 14.7676 9.42969 14.6211L12.8574 11.2617C12.9746 11.1445 13.0332 11.0273 13.0332 10.8711C13.0332 10.5586 12.7988 10.334 12.4863 10.334C12.3398 10.334 12.1836 10.3926 12.0762 10.5195L10.416 12.2383L9.54688 13.1367L9.58594 11.7207V0.900391C9.58594 0.587891 9.32227 0.314453 8.99023 0.314453C8.66797 0.314453 8.39453 0.587891 8.39453 0.900391V11.7207L8.44336 13.1465L7.56445 12.2383L5.9043 10.5195C5.79688 10.3926 5.63086 10.334 5.48438 10.334C5.17188 10.334 4.94727 10.5586 4.94727 10.8711C4.94727 11.0273 5.00586 11.1445 5.12305 11.2617L8.56055 14.6211C8.70703 14.7676 8.84375 14.8164 8.99023 14.8164ZM3.375 21.1055H14.6152C16.5195 21.1055 17.4961 20.1289 17.4961 18.2539V8.27344C17.4961 6.38867 16.5195 5.41211 14.6152 5.41211H11.832V6.62305H14.5859C15.6699 6.62305 16.2852 7.20898 16.2852 8.33203V18.1855C16.2852 19.3184 15.6699 19.8945 14.5859 19.8945H3.39453C2.30078 19.8945 1.70508 19.3184 1.70508 18.1855V8.33203C1.70508 7.20898 2.30078 6.62305 3.39453 6.62305H6.16797V5.41211H3.375C1.4707 5.41211 0.494141 6.37891 0.494141 8.27344V18.2539C0.494141 20.1387 1.4707 21.1055 3.375 21.1055Z" fill="url(#paint0_linear_1376_14692)"/>
<defs>
<linearGradient id="paint0_linear_1376_14692" x1="9" y1="-8" x2="9" y2="30" gradientUnits="userSpaceOnUse">
<stop stop-color="#FF5A5F"/>
<stop offset="0.307292" stop-color="#CA3D45"/>
<stop offset="1" stop-color="#97283C"/>
</linearGradient>
</defs>
</svg>
