<svg width="64" height="64" viewBox="0 0 64 64" fill="none" xmlns="http://www.w3.org/2000/svg">
    <path d="M15.21 55.336h6.317c.63 0 1.04.137 1.504.602l4.512 4.456c3.09 3.118 5.824 3.09 8.914 0l4.512-4.456c.465-.465.875-.602 1.504-.602h6.316c4.402 0 6.344-1.941 6.344-6.371v-6.317c0-.601.191-1.039.629-1.504l4.457-4.484c3.117-3.117 3.09-5.824 0-8.941l-4.457-4.512c-.438-.438-.63-.875-.63-1.477v-6.343c0-4.403-1.94-6.344-6.343-6.344h-6.316c-.63 0-1.04-.164-1.504-.602l-4.512-4.484C33.34.84 30.633.84 27.516 3.957L23.03 8.441c-.437.438-.875.602-1.504.602h-6.316c-4.402 0-6.344 1.914-6.344 6.344v6.343c0 .602-.191 1.04-.629 1.477l-4.457 4.512c-3.117 3.117-3.09 5.824 0 8.941l4.457 4.485c.438.464.63.902.63 1.503v6.317c0 4.402 1.94 6.37 6.343 6.37zm0-3.363c-2.515 0-3.007-.492-3.007-3.008V41.5c0-.793-.246-1.395-.793-1.941l-5.277-5.25c-1.778-1.805-1.778-2.461 0-4.239l5.277-5.25c.547-.574.793-1.148.793-1.941v-7.492c0-2.543.465-3.008 3.008-3.008h7.465c.793 0 1.394-.219 1.969-.793l5.222-5.277c1.805-1.778 2.461-1.778 4.266 0l5.222 5.277c.575.574 1.176.793 1.97.793h7.464c2.516 0 3.008.492 3.008 3.008v7.492c0 .793.246 1.367.793 1.941l5.277 5.25c1.778 1.778 1.778 2.434 0 4.239l-5.277 5.25c-.547.547-.793 1.148-.793 1.941v7.465c0 2.515-.492 3.008-3.008 3.008h-7.465c-.793 0-1.394.246-1.968.82l-5.223 5.25c-1.805 1.777-2.461 1.777-4.266 0l-5.223-5.25c-.574-.574-1.175-.82-1.968-.82H15.21zm13.864-6.836c.684 0 1.258-.328 1.668-.957l13.29-20.754c.245-.41.491-.875.491-1.313 0-.93-.847-1.586-1.722-1.586-.547 0-1.067.356-1.477.957l-12.36 19.551-6.288-7.765c-.492-.657-.985-.848-1.559-.848-.902 0-1.64.738-1.64 1.668 0 .465.191.93.492 1.34l7.3 8.75c.547.683 1.094.957 1.805.957z" fill="url(#fz4jx4y8qa)"/>
    <defs>
        <linearGradient id="fz4jx4y8qa" x1="32" y1="1" x2="32" y2="63" gradientUnits="userSpaceOnUse">
            <stop stop-color="#40B9FF"/>
            <stop offset="1" stop-color="#34ED55"/>
        </linearGradient>
    </defs>
</svg>
