<svg width="16" height="20" viewBox="0 0 16 20" fill="none" xmlns="http://www.w3.org/2000/svg">
<path d="M3.29785 19.0322H12.6934C14.3984 19.0322 15.2598 18.1533 15.2598 16.4395V8.19531C15.2598 7.24609 15.1367 6.82422 14.5566 6.22656L9.38867 1.00586C8.82617 0.43457 8.36914 0.302734 7.5166 0.302734H3.29785C1.61035 0.302734 0.731445 1.17285 0.731445 2.88672V16.4395C0.731445 18.1533 1.60156 19.0322 3.29785 19.0322ZM3.35059 17.9424C2.33984 17.9424 1.82129 17.4062 1.82129 16.4131V2.91309C1.82129 1.94629 2.33984 1.38379 3.35938 1.38379H7.46387V6.6748C7.46387 7.67676 7.97363 8.15137 8.94922 8.15137H14.1787V16.4131C14.1787 17.4062 13.6514 17.9424 12.6406 17.9424H3.35059ZM9.06348 7.12305C8.65918 7.12305 8.49219 6.96484 8.49219 6.56055V1.60352L13.959 7.12305H9.06348Z" fill="#F7F7F7"/>
</svg>
