<svg width="35" height="23" viewBox="0 0 35 23" fill="none" xmlns="http://www.w3.org/2000/svg">
<path d="M32.7852 2.90234L33.6172 2.07031C34.0391 1.64844 34.0391 1.15625 33.6406 0.757812L33.4414 0.558594C33.0898 0.207031 32.5625 0.242188 32.1875 0.628906L31.3438 1.44922L32.7852 2.90234ZM19.6484 14.8555L21.8867 13.7891L31.9883 3.71094L30.5469 2.26953L20.457 12.3477L19.3438 14.5273C19.25 14.7148 19.4609 14.9492 19.6484 14.8555ZM3.17188 22.0977H25.9414C27.9336 22.0977 29.0586 20.9961 29.0586 19.0156V9.54688L27.6055 10.9883V19.0625C27.6055 20.1406 27.0078 20.7266 25.9414 20.7266H3.17188C2.09375 20.7266 1.50781 20.1406 1.50781 19.0625V9.5C1.50781 8.42188 2.09375 7.83594 3.17188 7.83594H22.0391L23.3984 6.47656H3.17188C1.17969 6.47656 0.0546875 7.56641 0.0546875 9.55859V19.0156C0.0546875 20.9961 1.17969 22.0977 3.17188 22.0977ZM6.01953 15.8164C6.86328 15.8164 7.55469 15.125 7.55469 14.2812C7.55469 13.4375 6.86328 12.7461 6.01953 12.7461C5.17578 12.7461 4.48438 13.4375 4.48438 14.2812C4.48438 15.125 5.17578 15.8164 6.01953 15.8164ZM10.8828 15.8164C11.7266 15.8164 12.4062 15.125 12.4062 14.2812C12.4062 13.4375 11.7266 12.7461 10.8828 12.7461C10.0273 12.7461 9.34766 13.4375 9.34766 14.2812C9.34766 15.125 10.0273 15.8164 10.8828 15.8164ZM15.7461 15.8164C16.5898 15.8164 17.2812 15.125 17.2812 14.2812C17.2812 13.4375 16.5898 12.7461 15.7461 12.7461C14.8906 12.7461 14.2109 13.4375 14.2109 14.2812C14.2109 15.125 14.8906 15.8164 15.7461 15.8164Z" fill="#FF5A5F"/>
</svg>
