<svg width="56" height="56" viewBox="0 0 56 56" fill="none" xmlns="http://www.w3.org/2000/svg">
<path d="M28 55.6836C43.0117 55.6836 55.4258 43.2695 55.4258 28.2578C55.4258 13.2188 43.0117 0.832031 27.9727 0.832031C12.9609 0.832031 0.574219 13.2188 0.574219 28.2578C0.574219 43.2695 12.9883 55.6836 28 55.6836ZM28 52.1289C14.7656 52.1289 4.12891 41.4648 4.12891 28.2578C4.12891 15.0234 14.7656 4.35938 27.9727 4.35938C41.207 4.35938 51.8711 15.0234 51.8984 28.2578C51.8984 41.4648 41.2344 52.1289 28 52.1289ZM27.9727 33.1523C29.0117 33.1523 29.6133 32.5234 29.6406 31.375L29.9688 16.7734C29.9688 15.625 29.1211 14.8047 27.9453 14.8047C26.7695 14.8047 25.9492 15.5977 25.9766 16.7461L26.2773 31.375C26.2773 32.4961 26.9062 33.1523 27.9727 33.1523ZM27.9727 41.6289C29.3398 41.6289 30.5156 40.5352 30.5156 39.168C30.5156 37.8008 29.3672 36.707 27.9727 36.707C26.5781 36.707 25.4297 37.8008 25.4297 39.168C25.4297 40.5078 26.6055 41.6289 27.9727 41.6289Z" fill="url(#paint0_linear_1105_11537)"/>
<defs>
<linearGradient id="paint0_linear_1105_11537" x1="28" y1="-3" x2="28" y2="59" gradientUnits="userSpaceOnUse">
<stop stop-color="#FF5A5F"/>
<stop offset="1" stop-color="#EDE664"/>
</linearGradient>
</defs>
</svg>
