<svg width="17" height="17" viewBox="0 0 17 17" fill="none" xmlns="http://www.w3.org/2000/svg">
<path d="M8.73469 16.1953C13.0238 16.1953 16.5706 12.6484 16.5706 8.35938C16.5706 4.0625 13.0238 0.523438 8.72688 0.523438C4.43781 0.523438 0.898751 4.0625 0.898751 8.35938C0.898751 12.6484 4.44563 16.1953 8.73469 16.1953ZM8.73469 15.1797C4.95344 15.1797 1.91438 12.1328 1.91438 8.35938C1.91438 4.57812 4.95344 1.53125 8.72688 1.53125C12.5081 1.53125 15.555 4.57812 15.5628 8.35938C15.5628 12.1328 12.5159 15.1797 8.73469 15.1797ZM8.72688 9.75781C9.02375 9.75781 9.19563 9.57812 9.20344 9.25L9.29719 5.07812C9.29719 4.75 9.055 4.51562 8.71906 4.51562C8.38313 4.51562 8.14875 4.74219 8.15656 5.07031L8.2425 9.25C8.2425 9.57031 8.42219 9.75781 8.72688 9.75781ZM8.72688 12.1797C9.1175 12.1797 9.45344 11.8672 9.45344 11.4766C9.45344 11.0859 9.12531 10.7734 8.72688 10.7734C8.32844 10.7734 8.00031 11.0859 8.00031 11.4766C8.00031 11.8594 8.33625 12.1797 8.72688 12.1797Z" fill="#FF5A5F"/>
</svg>
