<svg width="35" height="33" viewBox="0 0 35 33" fill="none" xmlns="http://www.w3.org/2000/svg">
<path d="M31.5223 0.450012C29.5918 0.450012 28.0223 2.01954 28.0223 3.95001C28.0223 5.88048 29.5918 7.45001 31.5223 7.45001C33.4527 7.45001 35.0223 5.88048 35.0223 3.95001C35.0223 2.01954 33.4527 0.450012 31.5223 0.450012ZM19.316 0.493762C19.1984 0.493762 19.0863 0.499231 18.9879 0.515637L11.7254 1.30314C11.1019 1.48087 9.43944 1.93478 9.64726 3.27189C9.73476 3.97189 10.7109 4.30001 11.5723 4.30001C11.6762 4.30001 11.7773 4.28634 11.8348 4.27814L18.6379 4.14689L21.0441 6.02814L15.6191 9.83439C14.1508 10.9008 12.8219 12.2926 14.1316 14.5813L18.966 21.5594C17.2242 21.5813 12.573 21.6414 11.5285 21.7563C9.8578 21.9531 9.60351 22.9375 9.60351 23.5063C9.60351 24.3758 10.2187 25.2563 11.5723 25.2563H22.8379C23.7484 25.2563 24.4539 24.9227 24.7848 24.3594C25.0828 23.8563 25.0609 23.2192 24.6973 22.5656C24.1969 21.6305 20.6422 16.2274 19.7973 14.9094L26.9941 10.3375C28.0605 9.65939 28.3039 8.61759 27.6723 7.49376C27.1801 6.58048 25.9742 4.73204 25.9441 4.69376C25.8949 4.59532 25.8047 4.39845 20.4316 0.865637C20.1199 0.616809 19.7316 0.493762 19.316 0.493762ZM0.569132 6.40001C0.216398 6.47384 -0.0214931 6.80197 0.0113194 7.15743C0.0441319 7.51564 0.342179 7.79181 0.700382 7.80001H14.0004C14.2766 7.84103 14.55 7.71798 14.7004 7.48282C14.8508 7.2504 14.8508 6.94962 14.7004 6.7172C14.55 6.48204 14.2766 6.359 14.0004 6.40001H0.700382C0.656632 6.39728 0.612882 6.39728 0.569132 6.40001ZM0.569132 9.90001C0.216398 9.97384 -0.0214931 10.302 0.0113194 10.6574C0.0441319 11.0156 0.342179 11.2918 0.700382 11.3H10.5004C10.7766 11.341 11.05 11.218 11.2004 10.9828C11.3508 10.7504 11.3508 10.4496 11.2004 10.2172C11.05 9.98204 10.7766 9.859 10.5004 9.90001H0.700382C0.656632 9.89728 0.612882 9.89728 0.569132 9.90001ZM28.3285 11.0594C28.1508 11.2207 27.9566 11.3793 27.7379 11.5188L24.6535 13.4875L24.8504 14.6469C24.8558 14.6742 24.8613 14.7098 24.8723 14.7344C25.0937 15.2484 25.3836 15.7516 26.2066 15.85C26.2531 15.8473 31.041 15.5656 32.091 15.5656C34.0324 15.4453 34.3851 14.5758 34.4316 14.0563C34.459 13.6242 34.3769 13.3016 34.1691 13.0719C33.8355 12.7027 33.3105 12.6809 32.7473 12.6563C32.6242 12.6508 32.4902 12.6453 32.3535 12.6344L28.4598 12.4375L28.3285 11.0594ZM0.569132 13.4C0.216398 13.4738 -0.0214931 13.802 0.0113194 14.1574C0.0441319 14.5156 0.342179 14.7918 0.700382 14.8H10.5004C10.7766 14.841 11.05 14.718 11.2004 14.4828C11.3508 14.2504 11.3508 13.9496 11.2004 13.7172C11.05 13.482 10.7766 13.359 10.5004 13.4H0.700382C0.656632 13.3973 0.612882 13.3973 0.569132 13.4ZM0.569132 16.9C0.216398 16.9738 -0.0214931 17.302 0.0113194 17.6574C0.0441319 18.0156 0.342179 18.2918 0.700382 18.3H13.3004C13.5766 18.341 13.85 18.218 14.0004 17.9828C14.1508 17.7504 14.1508 17.4496 14.0004 17.2172C13.85 16.982 13.5766 16.859 13.3004 16.9H0.700382C0.656632 16.8973 0.612882 16.8973 0.569132 16.9ZM13.891 26.6563C12.8328 27.75 11.6707 28.9504 11.1348 29.5875C10.1777 30.7031 10.041 31.7996 10.7629 32.6063C11.0801 32.8879 11.4082 33 11.7473 33C12.5101 33 13.3059 32.3957 14.0223 31.7531C14.7988 31.0668 17.4348 28.45 19.2285 26.6563H13.891Z" fill="white"/>
</svg>
