<svg width="24" height="23" viewBox="0 0 24 23" fill="none" xmlns="http://www.w3.org/2000/svg">
<path d="M22.293 9.71094C21.8242 9.71094 21.4844 9.35938 21.4844 8.87891V6.93359L21.6719 2.97266L18.1328 6.61719L14.3359 10.4492C14.1836 10.6016 13.9844 10.6836 13.7734 10.6836C13.2695 10.6836 12.9062 10.3555 12.9062 9.85156C12.9062 9.61719 12.9883 9.40625 13.1406 9.24219L16.9727 5.42188L20.6172 1.89453L16.6445 2.09375H14.6992C14.2305 2.09375 13.8555 1.76562 13.8555 1.28516C13.8555 0.804688 14.2188 0.464844 14.6992 0.464844H21.6836C22.5742 0.464844 23.1133 1.00391 23.1133 1.90625V8.87891C23.1133 9.34766 22.7734 9.71094 22.293 9.71094ZM9.40234 22.6133H2.41797C1.51562 22.6133 0.988281 22.0742 0.988281 21.1719V14.1992C0.988281 13.7305 1.31641 13.3672 1.79688 13.3672C2.27734 13.3672 2.61719 13.7188 2.61719 14.1992V16.1562L2.41797 20.1055L5.96875 16.4609L9.76562 12.6406C9.91797 12.4766 10.1172 12.4062 10.3281 12.4062C10.832 12.4062 11.1953 12.7344 11.1953 13.2383C11.1953 13.4609 11.1133 13.6719 10.9492 13.8359L7.12891 17.6562L3.48438 21.1836L7.45703 20.9844H9.40234C9.87109 20.9844 10.2344 21.3125 10.2461 21.793C10.2461 22.2734 9.88281 22.6133 9.40234 22.6133Z" fill="#FF5A5F"/>
</svg>
