<svg width="24" height="16" viewBox="0 0 24 16" fill="none" xmlns="http://www.w3.org/2000/svg">
  <path d="M12 15.0542C12.7969 15.0542 13.555 14.9823 14.2744 14.8384C14.9938 14.7 15.6828 14.5091 16.3413 14.2656L15.4946 13.4189C14.9523 13.6016 14.3906 13.7482 13.8096 13.8589C13.234 13.9696 12.6309 14.0249 12 14.0249C11.0537 14.0249 10.1517 13.9087 9.29395 13.6763C8.4362 13.4383 7.63379 13.1257 6.88672 12.7383C6.14518 12.3509 5.47282 11.9303 4.86963 11.4766C4.27197 11.0173 3.75732 10.5635 3.32568 10.1152C2.89404 9.66146 2.56201 9.24919 2.32959 8.87842C2.1027 8.50765 1.98926 8.21989 1.98926 8.01514C1.98926 7.84912 2.08333 7.6084 2.27148 7.29297C2.45964 6.97754 2.73079 6.62061 3.08496 6.22217C3.44466 5.8182 3.87907 5.40592 4.38818 4.98535C4.8973 4.55924 5.47005 4.15804 6.10645 3.78174L5.30957 2.97656C4.6123 3.40267 3.98698 3.85645 3.43359 4.33789C2.88574 4.81934 2.41813 5.29525 2.03076 5.76562C1.64893 6.23047 1.35563 6.65934 1.15088 7.05225C0.95166 7.44515 0.852051 7.76611 0.852051 8.01514C0.852051 8.29183 0.976562 8.65706 1.22559 9.11084C1.47461 9.55908 1.83154 10.0488 2.29639 10.5801C2.76676 11.1058 3.33122 11.6315 3.98975 12.1572C4.64827 12.6829 5.39258 13.1644 6.22266 13.6016C7.05273 14.0387 7.95199 14.3901 8.92041 14.6558C9.88883 14.9214 10.9154 15.0542 12 15.0542ZM12 0.976074C11.2308 0.976074 10.5086 1.04525 9.8335 1.18359C9.1639 1.31641 8.50814 1.49902 7.86621 1.73145L8.71289 2.56982C9.23307 2.39827 9.75879 2.2627 10.29 2.16309C10.8213 2.05794 11.3913 2.00537 12 2.00537C12.9408 2.00537 13.84 2.12712 14.6978 2.37061C15.561 2.60856 16.3634 2.92399 17.105 3.31689C17.8521 3.7098 18.5244 4.13867 19.1221 4.60352C19.7197 5.06283 20.2316 5.52214 20.6577 5.98145C21.0894 6.43522 21.4214 6.84196 21.6538 7.20166C21.8862 7.56136 22.0024 7.83252 22.0024 8.01514C22.0024 8.19775 21.9111 8.44678 21.7285 8.76221C21.5459 9.07764 21.2803 9.4318 20.9316 9.82471C20.5885 10.2121 20.1735 10.6105 19.6865 11.02C19.1995 11.4295 18.6517 11.8197 18.043 12.1904L18.8398 12.9873C19.5039 12.5612 20.1016 12.1102 20.6328 11.6343C21.1696 11.1584 21.6234 10.6935 21.9941 10.2397C22.3649 9.78044 22.6471 9.3571 22.8408 8.96973C23.04 8.57682 23.1396 8.25863 23.1396 8.01514C23.1396 7.73844 23.0151 7.37598 22.7661 6.92773C22.5226 6.47396 22.1685 5.98421 21.7036 5.4585C21.2388 4.92725 20.6771 4.39876 20.0186 3.87305C19.36 3.34733 18.6157 2.86589 17.7856 2.42871C16.9611 1.99154 16.0618 1.64014 15.0879 1.37451C14.1195 1.10889 13.0902 0.976074 12 0.976074ZM12 12.6553C12.3984 12.6553 12.783 12.6055 13.1538 12.5059C13.5246 12.4007 13.876 12.2568 14.208 12.0742L7.90771 5.78223C7.7251 6.10872 7.58398 6.46012 7.48438 6.83643C7.38477 7.21273 7.33496 7.60563 7.33496 8.01514C7.34049 8.646 7.46224 9.24365 7.7002 9.80811C7.93815 10.367 8.27018 10.8595 8.69629 11.2856C9.1224 11.7118 9.61491 12.0465 10.1738 12.29C10.7383 12.5335 11.347 12.6553 12 12.6553ZM16.1255 10.082C16.2915 9.77767 16.4188 9.45117 16.5073 9.10254C16.6014 8.74837 16.6484 8.3859 16.6484 8.01514C16.6484 7.36768 16.5267 6.76449 16.2832 6.20557C16.0452 5.64111 15.7132 5.1486 15.2871 4.72803C14.861 4.30192 14.3657 3.96989 13.8013 3.73193C13.2368 3.49398 12.6364 3.375 12 3.375C11.6237 3.375 11.2585 3.41927 10.9043 3.50781C10.5557 3.59635 10.2292 3.72087 9.9248 3.88135L16.1255 10.082ZM18.6157 15.2119C18.7098 15.3115 18.8232 15.3613 18.9561 15.3613C19.0944 15.3669 19.2134 15.3171 19.313 15.2119C19.4181 15.1068 19.4679 14.9878 19.4624 14.855C19.4569 14.7277 19.4071 14.6143 19.313 14.5146L5.25977 0.469727C5.16569 0.375651 5.04948 0.328613 4.91113 0.328613C4.77279 0.323079 4.65381 0.370117 4.5542 0.469727C4.46012 0.563802 4.41309 0.680013 4.41309 0.818359C4.41309 0.956706 4.46012 1.07292 4.5542 1.16699L18.6157 15.2119Z" fill="#FF5A5F"/>
</svg>
