<svg width="24" height="16" viewBox="0 0 24 16" fill="none" xmlns="http://www.w3.org/2000/svg">
  <path d="M12 15.0542C13.0902 15.0542 14.1195 14.9214 15.0879 14.6558C16.0618 14.3901 16.9611 14.0387 17.7856 13.6016C18.6157 13.1644 19.36 12.6829 20.0186 12.1572C20.6771 11.6315 21.2388 11.1058 21.7036 10.5801C22.1685 10.0488 22.5226 9.55908 22.7661 9.11084C23.0151 8.65706 23.1396 8.29183 23.1396 8.01514C23.1396 7.73844 23.0151 7.37598 22.7661 6.92773C22.5171 6.47396 22.1602 5.98421 21.6953 5.4585C21.2305 4.92725 20.6688 4.39876 20.0103 3.87305C19.3517 3.34733 18.6074 2.86589 17.7773 2.42871C16.9528 1.99154 16.0535 1.64014 15.0796 1.37451C14.1056 1.10889 13.0791 0.976074 12 0.976074C10.9209 0.976074 9.89714 1.10889 8.92871 1.37451C7.96582 1.64014 7.06934 1.99154 6.23926 2.42871C5.40918 2.86589 4.66211 3.34733 3.99805 3.87305C3.33952 4.39876 2.77507 4.92725 2.30469 5.4585C1.83431 5.98421 1.47461 6.47396 1.22559 6.92773C0.976562 7.37598 0.852051 7.73844 0.852051 8.01514C0.852051 8.29183 0.976562 8.65706 1.22559 9.11084C1.47461 9.55908 1.83154 10.0488 2.29639 10.5801C2.76676 11.1058 3.33122 11.6315 3.98975 12.1572C4.64827 12.6829 5.39258 13.1644 6.22266 13.6016C7.05273 14.0387 7.95199 14.3901 8.92041 14.6558C9.88883 14.9214 10.9154 15.0542 12 15.0542ZM12 14.0249C11.0537 14.0249 10.1517 13.9087 9.29395 13.6763C8.4362 13.4383 7.63379 13.1257 6.88672 12.7383C6.14518 12.3509 5.47282 11.9303 4.86963 11.4766C4.27197 11.0173 3.75732 10.5635 3.32568 10.1152C2.89404 9.66146 2.56201 9.24919 2.32959 8.87842C2.1027 8.50765 1.98926 8.21989 1.98926 8.01514C1.98926 7.83252 2.1027 7.56136 2.32959 7.20166C2.56201 6.84196 2.89404 6.43522 3.32568 5.98145C3.75732 5.52214 4.27197 5.06283 4.86963 4.60352C5.47282 4.13867 6.14518 3.7098 6.88672 3.31689C7.63379 2.92399 8.4362 2.60856 9.29395 2.37061C10.1517 2.12712 11.0537 2.00537 12 2.00537C12.9352 2.00537 13.8317 2.12712 14.6895 2.37061C15.5472 2.60856 16.3468 2.92399 17.0884 3.31689C17.8354 3.7098 18.5106 4.13867 19.1138 4.60352C19.717 5.06283 20.2316 5.52214 20.6577 5.98145C21.0894 6.43522 21.4214 6.84196 21.6538 7.20166C21.8862 7.56136 22.0024 7.83252 22.0024 8.01514C22.0024 8.21989 21.8862 8.50765 21.6538 8.87842C21.4214 9.24919 21.0894 9.66146 20.6577 10.1152C20.2316 10.5635 19.717 11.0173 19.1138 11.4766C18.5106 11.9303 17.8354 12.3509 17.0884 12.7383C16.3468 13.1257 15.5472 13.4383 14.6895 13.6763C13.8317 13.9087 12.9352 14.0249 12 14.0249ZM12 12.6553C12.6364 12.6553 13.2368 12.5335 13.8013 12.29C14.3657 12.0465 14.861 11.7118 15.2871 11.2856C15.7132 10.8595 16.0452 10.367 16.2832 9.80811C16.5267 9.24365 16.6484 8.646 16.6484 8.01514C16.6484 7.36768 16.5267 6.76449 16.2832 6.20557C16.0452 5.64111 15.7132 5.1486 15.2871 4.72803C14.861 4.30192 14.3657 3.96989 13.8013 3.73193C13.2368 3.49398 12.6364 3.375 12 3.375C11.347 3.375 10.7383 3.49398 10.1738 3.73193C9.61491 3.96989 9.11963 4.30192 8.68799 4.72803C8.26188 5.1486 7.92985 5.64111 7.69189 6.20557C7.45394 6.76449 7.33496 7.36768 7.33496 8.01514C7.34049 8.646 7.46224 9.24365 7.7002 9.80811C7.94368 10.367 8.27848 10.8595 8.70459 11.2856C9.1307 11.7118 9.62321 12.0465 10.1821 12.29C10.741 12.5335 11.347 12.6553 12 12.6553ZM12 9.49268C11.585 9.49268 11.2308 9.3488 10.9375 9.06104C10.6442 8.76774 10.4976 8.41911 10.4976 8.01514C10.4976 7.60563 10.6442 7.257 10.9375 6.96924C11.2308 6.68148 11.585 6.5376 12 6.5376C12.4095 6.5376 12.7581 6.68148 13.0459 6.96924C13.3392 7.257 13.4858 7.60563 13.4858 8.01514C13.4858 8.41911 13.3392 8.76774 13.0459 9.06104C12.7581 9.3488 12.4095 9.49268 12 9.49268Z" fill="#FF5A5F"/>
</svg>
