<svg width="21" height="20" viewBox="0 0 21 20" fill="none" xmlns="http://www.w3.org/2000/svg">
<path d="M4.55859 19.083H16.3975C17.5664 19.083 18.2256 18.4414 18.2256 17.29V8.50098L19.5879 9.64355C19.7285 9.75781 19.8691 9.85449 20.0537 9.85449C20.3789 9.85449 20.6338 9.66113 20.6338 9.34473C20.6338 9.13379 20.5635 9.00195 20.4053 8.87012L18.2256 7.0332V3.37695C18.2256 3.06055 18.0146 2.8584 17.6982 2.8584H16.8721C16.5645 2.8584 16.3447 3.06055 16.3447 3.37695V5.45117L11.458 1.33789C10.8691 0.836914 10.1572 0.836914 9.55957 1.33789L0.585938 8.87012C0.427734 9.00195 0.357422 9.16016 0.357422 9.32715C0.357422 9.59961 0.577148 9.85449 0.9375 9.85449C1.12207 9.85449 1.27148 9.75781 1.40332 9.64355L2.73926 8.52734V17.29C2.73926 18.4414 3.39844 19.083 4.55859 19.083ZM12.9785 11.9023C12.9785 11.5332 12.7412 11.2959 12.3721 11.2959H8.61914C8.25 11.2959 8.00391 11.5332 8.00391 11.9023V18.002H4.78711C4.14551 18.002 3.8291 17.6768 3.8291 17.0264V7.61328L10.1572 2.30469C10.377 2.11133 10.6143 2.09375 10.8516 2.30469L17.1357 7.58691V17.0264C17.1357 17.6768 16.8193 18.002 16.1689 18.002H12.9785V11.9023Z" fill="#FF5A5F"/>
</svg>
