<svg width="16" height="19" viewBox="0 0 16 19" fill="none" xmlns="http://www.w3.org/2000/svg">
<path d="M6.55859 18.6982C6.875 18.6982 7.1123 18.4609 7.1123 18.1533V1.16406C7.1123 0.856445 6.875 0.619141 6.55859 0.619141C6.25098 0.619141 6.02246 0.856445 6.02246 1.16406V18.1533C6.02246 18.4609 6.25098 18.6982 6.55859 18.6982ZM12.2979 16.5713C12.6055 16.5713 12.8428 16.334 12.8428 16.0264V3.29102C12.8428 2.9834 12.6055 2.7373 12.2979 2.7373C11.9902 2.7373 11.7617 2.9834 11.7617 3.29102V16.0264C11.7617 16.334 11.9902 16.5713 12.2979 16.5713ZM3.69336 15.1562C4.00977 15.1562 4.24707 14.9189 4.24707 14.6113V4.70605C4.24707 4.39844 4.00977 4.15234 3.69336 4.15234C3.38574 4.15234 3.15723 4.39844 3.15723 4.70605V14.6113C3.15723 14.9189 3.38574 15.1562 3.69336 15.1562ZM9.43262 14.207C9.74023 14.207 9.97754 13.9697 9.97754 13.6621V5.65527C9.97754 5.34766 9.74023 5.11035 9.43262 5.11035C9.11621 5.11035 8.8877 5.34766 8.8877 5.65527V13.6621C8.8877 13.9697 9.11621 14.207 9.43262 14.207ZM15.1719 12.5986C15.4795 12.5986 15.708 12.3613 15.708 12.0537V7.26367C15.708 6.95605 15.4795 6.70996 15.1719 6.70996C14.8555 6.70996 14.627 6.95605 14.627 7.26367V12.0537C14.627 12.3613 14.8555 12.5986 15.1719 12.5986ZM0.828125 11.7725C1.14453 11.7725 1.38184 11.5352 1.38184 11.2275V8.08984C1.38184 7.78223 1.14453 7.53613 0.828125 7.53613C0.520508 7.53613 0.291992 7.78223 0.291992 8.08984V11.2275C0.291992 11.5352 0.520508 11.7725 0.828125 11.7725Z" fill="#FF5A5F"/>
</svg>
