<svg width="19" height="18" viewBox="0 0 19 18" fill="none" xmlns="http://www.w3.org/2000/svg">
<path d="M6.34473 5.8418C7.90039 5.8418 9.20117 4.5498 9.20117 2.99414C9.20117 1.43848 7.90039 0.146484 6.34473 0.146484C4.78906 0.146484 3.48828 1.43848 3.48828 2.99414C3.48828 4.5498 4.78906 5.8418 6.34473 5.8418ZM12.6553 5.8418C14.2109 5.8418 15.5117 4.5498 15.5117 2.99414C15.5117 1.43848 14.2109 0.146484 12.6553 0.146484C11.0996 0.146484 9.79883 1.43848 9.79883 2.99414C9.79883 4.5498 11.0996 5.8418 12.6553 5.8418ZM6.34473 4.76074C5.38672 4.76074 4.57812 3.95215 4.57812 2.99414C4.57812 2.03613 5.38672 1.22754 6.34473 1.22754C7.30273 1.22754 8.11133 2.03613 8.11133 2.99414C8.11133 3.95215 7.30273 4.76074 6.34473 4.76074ZM12.6553 4.76074C11.6973 4.76074 10.8887 3.95215 10.8887 2.99414C10.8887 2.03613 11.6973 1.22754 12.6553 1.22754C13.6221 1.22754 14.4219 2.03613 14.4219 2.99414C14.4219 3.95215 13.6221 4.76074 12.6553 4.76074ZM3.18945 11.5107C4.74512 11.5107 6.0459 10.21 6.0459 8.6543C6.0459 7.09863 4.74512 5.79785 3.18945 5.79785C1.63379 5.79785 0.333008 7.09863 0.333008 8.6543C0.333008 10.21 1.63379 11.5107 3.18945 11.5107ZM15.8105 11.5107C17.375 11.5107 18.667 10.21 18.667 8.6543C18.667 7.09863 17.375 5.79785 15.8105 5.79785C14.2549 5.79785 12.9629 7.09863 12.9629 8.6543C12.9629 10.21 14.2549 11.5107 15.8105 11.5107ZM3.18945 10.4209C2.22266 10.4209 1.42285 9.6123 1.42285 8.6543C1.42285 7.6875 2.22266 6.8877 3.18945 6.8877C4.14746 6.8877 4.95605 7.6875 4.95605 8.6543C4.95605 9.6123 4.14746 10.4209 3.18945 10.4209ZM15.8105 10.4209C14.8525 10.4209 14.0439 9.6123 14.0439 8.6543C14.0439 7.6875 14.8525 6.8877 15.8105 6.8877C16.7773 6.8877 17.5859 7.6875 17.5859 8.6543C17.5859 9.6123 16.7773 10.4209 15.8105 10.4209ZM6.34473 17.1621C7.90039 17.1621 9.20117 15.8613 9.20117 14.3057C9.20117 12.75 7.90039 11.458 6.34473 11.458C4.78906 11.458 3.48828 12.75 3.48828 14.3057C3.48828 15.8613 4.78906 17.1621 6.34473 17.1621ZM12.6553 17.1621C14.2109 17.1621 15.5117 15.8613 15.5117 14.3057C15.5117 12.75 14.2109 11.458 12.6553 11.458C11.0996 11.458 9.79883 12.75 9.79883 14.3057C9.79883 15.8613 11.0996 17.1621 12.6553 17.1621ZM6.34473 16.0811C5.38672 16.0811 4.57812 15.2725 4.57812 14.3057C4.57812 13.3564 5.38672 12.5479 6.34473 12.5479C7.30273 12.5479 8.11133 13.3564 8.11133 14.3057C8.11133 15.2725 7.30273 16.0811 6.34473 16.0811ZM12.6553 16.0811C11.6973 16.0811 10.8887 15.2725 10.8887 14.3057C10.8887 13.3564 11.6973 12.5479 12.6553 12.5479C13.6221 12.5479 14.4219 13.3564 14.4219 14.3057C14.4219 15.2725 13.6221 16.0811 12.6553 16.0811Z" fill="#FF5A5F"/>
</svg>
