<svg width="24" height="20" viewBox="0 0 24 20" fill="none" xmlns="http://www.w3.org/2000/svg">
<path d="M16.6641 10.3594C16.6641 10.2031 16.6094 10.0703 16.4922 9.96094L10.25 4.00781C10.1406 3.90625 10.0156 3.85156 9.85938 3.85156C9.5625 3.85156 9.32031 4.08594 9.32031 4.39062C9.32031 4.53906 9.38281 4.67188 9.47656 4.77344L15.3438 10.3594L9.47656 15.9453C9.38281 16.0391 9.32031 16.1719 9.32031 16.3203C9.32031 16.6328 9.5625 16.8594 9.85938 16.8594C10.0156 16.8594 10.1406 16.8047 10.25 16.7031L16.4922 10.7578C16.6094 10.6484 16.6641 10.5156 16.6641 10.3594Z" fill="#F7F7F7"/>
</svg>
