<svg width="28" height="26" viewBox="0 0 28 26" fill="none" xmlns="http://www.w3.org/2000/svg">
<path fill-rule="evenodd" clip-rule="evenodd" d="M13.9983 2.73431C15.4234 1.29907 17.2623 0.787888 19.0258 0.813405C23.2645 0.874735 27.5426 4.33373 27.5426 9.34451C27.5426 14.1644 24.4598 18.1771 21.4107 20.9051C19.8679 22.2854 18.2856 23.3812 17.0006 24.1359C16.3585 24.513 15.7797 24.8113 15.3075 25.0191C15.0722 25.1226 14.8514 25.209 14.6547 25.2713C14.4836 25.3256 14.2424 25.3913 14.0006 25.3913C13.7587 25.3913 13.5175 25.3256 13.3464 25.2713C13.1498 25.209 12.929 25.1226 12.6937 25.0191C12.2214 24.8113 11.6426 24.513 11.0005 24.1359C9.7155 23.3812 8.13318 22.2854 6.5904 20.9051C3.54132 18.1771 0.458496 14.1644 0.458496 9.34452C0.458496 4.34557 4.72665 0.8133 8.98998 0.8133C10.7057 0.8133 12.5622 1.30186 13.9983 2.73431ZM18.9964 2.84444C17.3744 2.82097 15.8629 3.37163 14.8456 4.89753C14.6572 5.18006 14.3401 5.34977 14.0006 5.34977C13.661 5.34977 13.3439 5.18006 13.1555 4.89753C12.1444 3.38086 10.6053 2.84455 8.98998 2.84455C5.73746 2.84455 2.48975 5.57529 2.48975 9.34452C2.48975 13.2929 5.04383 16.7958 7.9448 19.3913C9.37706 20.6727 10.8481 21.6907 12.0292 22.3843C12.6201 22.7314 13.1276 22.9909 13.5117 23.1598C13.7045 23.2447 13.8544 23.3015 13.9605 23.3351C13.9756 23.3399 13.989 23.344 14.0006 23.3473C14.0122 23.344 14.0255 23.3399 14.0406 23.3351C14.1467 23.3015 14.2966 23.2447 14.4894 23.1598C14.8735 22.9909 15.381 22.7314 15.972 22.3843C17.1531 21.6907 18.6241 20.6727 20.0563 19.3913C22.9573 16.7958 25.5114 13.2929 25.5114 9.34451C25.5114 5.58713 22.2736 2.89186 18.9964 2.84444Z" fill="#040509"/>
</svg>
