<svg width="22" height="22" viewBox="0 0 22 22" fill="none" xmlns="http://www.w3.org/2000/svg">
<path d="M11 0.461914C10.9043 0.461914 10.809 0.492267 10.7276 0.553867L0.60758 8.45238C0.41838 8.60198 0.383214 8.87839 0.532814 9.07199C0.682414 9.26119 0.958824 9.29636 1.15242 9.14676L1.76 8.67238V20.2396C1.76 20.4816 1.958 20.6796 2.2 20.6796H8.36V12.7596H13.64V20.6796H19.8C20.042 20.6796 20.24 20.4816 20.24 20.2396V8.67238L20.8476 9.14676C20.9312 9.20836 21.0232 9.23957 21.12 9.23957C21.252 9.23957 21.3792 9.18199 21.4672 9.07199C21.6168 8.87839 21.5816 8.60198 21.3924 8.45238L11.2724 0.553867C11.191 0.492267 11.0957 0.461914 11 0.461914ZM15.4 2.19957V2.66191L18.04 4.72098V2.19957H15.4Z" fill="white"/>
</svg>
