<svg width="22" height="22" viewBox="0 0 22 22" fill="none" xmlns="http://www.w3.org/2000/svg">
<path d="M10.9837 0.464211C10.8913 0.467396 10.8023 0.499567 10.7293 0.556164L0.609306 8.45296C0.517226 8.52476 0.457438 8.63019 0.443094 8.74607C0.428751 8.86194 0.461027 8.97877 0.532822 9.07085C0.604617 9.16293 0.71005 9.22272 0.825927 9.23706C0.941803 9.25141 1.05863 9.21913 1.15071 9.14734L1.76001 8.6721V20.2401C1.76002 20.3568 1.80638 20.4688 1.88889 20.5513C1.97141 20.6338 2.08332 20.6801 2.20001 20.6801H8.2861C8.33362 20.688 8.3821 20.688 8.42962 20.6801H13.5661C13.6136 20.688 13.6621 20.688 13.7096 20.6801H19.8C19.9167 20.6801 20.0286 20.6338 20.1111 20.5513C20.1936 20.4688 20.24 20.3568 20.24 20.2401V8.6721L20.8493 9.14734C20.8949 9.18289 20.947 9.20912 21.0028 9.22451C21.0585 9.23991 21.1167 9.24418 21.1741 9.23708C21.2315 9.22998 21.2869 9.21165 21.3372 9.18313C21.3875 9.15461 21.4317 9.11647 21.4672 9.07087C21.5028 9.02528 21.529 8.97312 21.5444 8.91739C21.5598 8.86166 21.5641 8.80345 21.5569 8.74607C21.5498 8.68869 21.5315 8.63327 21.503 8.58298C21.4745 8.53269 21.4363 8.48851 21.3907 8.45296L18.04 5.83874V2.64015H15.4V3.77796L11.2707 0.556164C11.1888 0.492681 11.0872 0.460119 10.9837 0.464211ZM11 1.46195L19.36 7.98546V19.8001H14.08V11.4401H7.92001V19.8001H2.64001V7.98546L11 1.46195ZM16.28 3.52015H17.16V5.1521L16.28 4.4646V3.52015ZM8.80001 12.3201H13.2V19.8001H8.80001V12.3201Z" fill="white"/>
</svg>
