<svg width="20" height="20" viewBox="0 0 20 20" fill="none" xmlns="http://www.w3.org/2000/svg">
<path d="M10 19.7441C15.3613 19.7441 19.7949 15.3105 19.7949 9.94922C19.7949 4.57812 15.3613 0.154297 9.99023 0.154297C4.62891 0.154297 0.205078 4.57812 0.205078 9.94922C0.205078 15.3105 4.63867 19.7441 10 19.7441ZM10 18.4746C5.27344 18.4746 1.47461 14.666 1.47461 9.94922C1.47461 5.22266 5.27344 1.41406 9.99023 1.41406C14.7168 1.41406 18.5254 5.22266 18.5352 9.94922C18.5352 14.666 14.7266 18.4746 10 18.4746ZM9.94141 6.25781C10.5469 6.25781 11.0156 5.78906 11.0156 5.19336C11.0156 4.59766 10.5469 4.10938 9.94141 4.10938C9.3457 4.10938 8.86719 4.59766 8.86719 5.19336C8.86719 5.78906 9.3457 6.25781 9.94141 6.25781ZM8.25195 15.2715H12.2559C12.5684 15.2715 12.8125 15.0371 12.8125 14.7246C12.8125 14.4316 12.5684 14.1875 12.2559 14.1875H10.8496V8.70898C10.8496 8.31836 10.6445 8.04492 10.2637 8.04492H8.37891C8.06641 8.04492 7.82227 8.28906 7.82227 8.58203C7.82227 8.89453 8.06641 9.12891 8.37891 9.12891H9.6582V14.1875H8.25195C7.93945 14.1875 7.69531 14.4316 7.69531 14.7246C7.69531 15.0371 7.93945 15.2715 8.25195 15.2715Z" fill="#FF5A5F"/>
</svg>
