<svg width="18" height="18" viewBox="0 0 18 18" fill="none" xmlns="http://www.w3.org/2000/svg">
    <path d="M17.555 12.852 17.53.863c0-.504-.328-.855-.855-.855H4.688c-.504 0-.833.375-.833.797 0 .433.364.785.797.785h5.075l5.402-.14-2.063 1.874L.68 15.723a.794.794 0 0 0-.246.562c0 .422.386.82.82.82.2 0 .398-.07.562-.246L14.215 4.473 16.09 2.41l-.14 4.828v5.649c0 .422.35.808.796.808.434 0 .809-.363.809-.843z" fill="url(#6yj89dcuma)"/>
    <defs>
        <linearGradient id="6yj89dcuma" x1="9" y1="-11" x2="9" y2="27" gradientUnits="userSpaceOnUse">
            <stop stop-color="#40B9FF"/>
            <stop offset="1" stop-color="#34ED55"/>
        </linearGradient>
    </defs>
</svg>
