<svg width="56" height="56" viewBox="0 0 56 56" fill="none" xmlns="http://www.w3.org/2000/svg">
  <path d="M8.70809 13.5568L37.8208 13.5604C40.2266 13.5604 42.1769 15.4987 42.1769 17.8897C42.1769 20.11 40.4953 21.9399 38.3288 22.19L37.8208 22.2191H0V0H37.468C47.2942 0 55.2599 7.91676 55.2599 17.6826C55.2599 27.1525 47.7696 34.8836 38.356 35.3435L37.468 35.3651L8.70809 35.3638V47.3389H13.0904L13.0942 39.1007L21.8065 39.0715V56H0V26.7064H37.468C42.4825 26.7064 46.5476 22.6663 46.5476 17.6826C46.5476 12.9155 42.8283 9.01184 38.1164 8.6814L37.468 8.65874L8.70809 8.65595V13.5568Z" fill="#F7F7F7"/>
</svg>
