<svg width="56" height="56" viewBox="0 0 56 56" fill="none" xmlns="http://www.w3.org/2000/svg">
    <path d="M28 55.684c15.012 0 27.426-12.414 27.426-27.426 0-15.04-12.387-27.426-27.399-27.426-1.34 0-1.914.711-1.914 1.914v10.719c0 .93.602 1.695 1.559 1.695s1.586-.765 1.586-1.695v-9.05C41.945 5.097 51.87 15.46 51.87 28.257c0 13.207-10.637 23.87-23.871 23.87-13.234 0-23.898-10.663-23.871-23.87 0-6.152 2.324-11.703 6.098-15.914.656-.793.71-1.805 0-2.516-.684-.738-1.832-.683-2.598.219C3.28 14.914.574 21.312.574 28.257.574 43.27 12.988 55.685 28 55.685zm3.965-23.98c1.969-2.079 1.558-4.84-.793-6.481L16.98 15.133c-1.175-.848-2.378.355-1.53 1.531l10.062 14.191c1.668 2.352 4.43 2.817 6.453.848z" fill="url(#zbc8yqozsa)"/>
    <defs>
        <linearGradient id="zbc8yqozsa" x1="28" y1="-3" x2="28" y2="59" gradientUnits="userSpaceOnUse">
            <stop stop-color="#40B9FF"/>
            <stop offset="1" stop-color="#34ED55"/>
        </linearGradient>
    </defs>
</svg>
