<svg width="8" height="14" viewBox="0 0 8 14" fill="none" xmlns="http://www.w3.org/2000/svg">
<path d="M1.07422 13.2373H6.92578C7.54102 13.2373 7.93066 12.8682 7.93066 12.2188V12.041C7.93066 10.4756 6.19434 8.65723 5.1416 7.61133C4.78613 7.25586 4.75879 6.87305 5.1416 6.49707C6.19434 5.45117 7.93066 3.64648 7.93066 2.06738V1.90332C7.93066 1.26074 7.54102 0.891602 6.92578 0.891602H1.07422C0.452148 0.891602 0.0625 1.26074 0.0625 1.90332V2.06738C0.0625 3.64648 1.80566 5.45117 2.8584 6.49707C3.23438 6.87305 3.21387 7.25586 2.8584 7.61133C1.80566 8.65723 0.0625 10.4756 0.0625 12.041V12.2188C0.0625 12.8682 0.452148 13.2373 1.07422 13.2373ZM4.38965 6.17578C4.10254 6.41504 3.89062 6.41504 3.61035 6.17578C3.0293 5.67676 1.65527 4.23438 1.14258 3.29102C1.04004 3.10645 1.10156 2.96289 1.28613 2.96289H6.71387C6.89844 2.96289 6.95312 3.10645 6.85059 3.29102C6.34473 4.23438 4.9707 5.67676 4.38965 6.17578Z" fill="#F7F7F7"/>
</svg>
