<svg width="63" height="64" viewBox="0 0 63 64" fill="none" xmlns="http://www.w3.org/2000/svg">
<path d="M14.7109 55.3906H21.0273C21.6562 55.3906 22.0664 55.5547 22.5312 55.9922L27.043 60.4766C30.1328 63.5938 32.8672 63.5664 35.957 60.4766L40.4688 55.9922C40.9336 55.5547 41.3438 55.3906 41.9727 55.3906H48.2891C52.6914 55.3906 54.6328 53.4492 54.6328 49.0469V42.7305C54.6328 42.1016 54.8242 41.6641 55.2617 41.2266L59.7188 36.7148C62.8359 33.625 62.8086 30.8906 59.7188 27.7734L55.2617 23.2891C54.8242 22.8242 54.6328 22.3867 54.6328 21.7852V15.4688C54.6328 11.0664 52.6914 9.125 48.2891 9.125H41.9727C41.3438 9.125 40.9336 8.96094 40.4688 8.49609L35.957 4.03906C32.8398 0.921875 30.1328 0.921875 27.0156 4.03906L22.5312 8.49609C22.0938 8.93359 21.6562 9.125 21.0273 9.125H14.7109C10.3086 9.125 8.36719 11.0391 8.36719 15.4688V21.7852C8.36719 22.3867 8.17578 22.8242 7.73828 23.2891L3.28125 27.7734C0.164062 30.8906 0.191406 33.625 3.28125 36.7148L7.73828 41.2266C8.17578 41.6641 8.36719 42.1016 8.36719 42.7305V49.0469C8.36719 53.4492 10.3086 55.3906 14.7109 55.3906ZM14.7109 52.0547C12.1953 52.0547 11.7031 51.5625 11.7031 49.0469V41.5547C11.7031 40.7891 11.457 40.1875 10.9102 39.6133L5.63281 34.3633C3.85547 32.5859 3.85547 31.9297 5.63281 30.125L10.9102 24.875C11.457 24.3281 11.7031 23.7266 11.7031 22.9336V15.4688C11.7031 12.9258 12.168 12.4609 14.7109 12.4609H22.1758C22.9688 12.4609 23.5703 12.2422 24.1445 11.6406L29.3672 6.39062C31.1719 4.61328 31.8281 4.61328 33.6328 6.39062L38.8555 11.6406C39.4297 12.2422 40.0312 12.4609 40.8242 12.4609H48.2891C50.8047 12.4609 51.2969 12.9531 51.2969 15.4688V22.9336C51.2969 23.7266 51.543 24.3281 52.0898 24.875L57.3672 30.125C59.1445 31.9297 59.1445 32.5859 57.3672 34.3633L52.0898 39.6133C51.543 40.1875 51.2969 40.7891 51.2969 41.5547V49.0469C51.2969 51.5625 50.8047 52.0547 48.2891 52.0547H40.8242C40.0312 52.0547 39.4297 52.2734 38.8555 52.8477L33.6328 58.125C31.8281 59.9023 31.1719 59.9023 29.3672 58.125L24.1445 52.8477C23.5703 52.2734 22.9688 52.0547 22.1758 52.0547H14.7109Z" fill="url(#paint0_linear_198_5748)"/>
<defs>
<linearGradient id="paint0_linear_198_5748" x1="31.5" y1="1" x2="31.5" y2="63" gradientUnits="userSpaceOnUse">
<stop stop-color="#FF5A5F"/>
<stop offset="1" stop-color="#1735BC"/>
</linearGradient>
</defs>
</svg>
