<svg width="28" height="27" viewBox="0 0 28 27" fill="none" xmlns="http://www.w3.org/2000/svg">
<path d="M6.80469 23.4531H9.51172C9.78125 23.4531 9.95703 23.5234 10.1562 23.7109L12.0898 25.6328C13.4141 26.9688 14.5859 26.957 15.9102 25.6328L17.8438 23.7109C18.043 23.5234 18.2188 23.4531 18.4883 23.4531H21.1953C23.082 23.4531 23.9141 22.6211 23.9141 20.7344V18.0273C23.9141 17.7578 23.9961 17.5703 24.1836 17.3828L26.0938 15.4492C27.4297 14.125 27.418 12.9531 26.0938 11.6172L24.1836 9.69531C23.9961 9.49609 23.9141 9.30859 23.9141 9.05078V6.34375C23.9141 4.45703 23.082 3.625 21.1953 3.625H18.4883C18.2188 3.625 18.043 3.55469 17.8438 3.35547L15.9102 1.44531C14.5742 0.109375 13.4141 0.109375 12.0781 1.44531L10.1562 3.35547C9.96875 3.54297 9.78125 3.625 9.51172 3.625H6.80469C4.91797 3.625 4.08594 4.44531 4.08594 6.34375V9.05078C4.08594 9.30859 4.00391 9.49609 3.81641 9.69531L1.90625 11.6172C0.570312 12.9531 0.582031 14.125 1.90625 15.4492L3.81641 17.3828C4.00391 17.5703 4.08594 17.7578 4.08594 18.0273V20.7344C4.08594 22.6211 4.91797 23.4531 6.80469 23.4531ZM6.80469 22.0234C5.72656 22.0234 5.51562 21.8125 5.51562 20.7344V17.5234C5.51562 17.1953 5.41016 16.9375 5.17578 16.6914L2.91406 14.4414C2.15234 13.6797 2.15234 13.3984 2.91406 12.625L5.17578 10.375C5.41016 10.1406 5.51562 9.88281 5.51562 9.54297V6.34375C5.51562 5.25391 5.71484 5.05469 6.80469 5.05469H10.0039C10.3438 5.05469 10.6016 4.96094 10.8477 4.70312L13.0859 2.45312C13.8594 1.69141 14.1406 1.69141 14.9141 2.45312L17.1523 4.70312C17.3984 4.96094 17.6562 5.05469 17.9961 5.05469H21.1953C22.2734 5.05469 22.4844 5.26562 22.4844 6.34375V9.54297C22.4844 9.88281 22.5898 10.1406 22.8242 10.375L25.0859 12.625C25.8477 13.3984 25.8477 13.6797 25.0859 14.4414L22.8242 16.6914C22.5898 16.9375 22.4844 17.1953 22.4844 17.5234V20.7344C22.4844 21.8125 22.2734 22.0234 21.1953 22.0234H17.9961C17.6562 22.0234 17.3984 22.1172 17.1523 22.3633L14.9141 24.625C14.1406 25.3867 13.8594 25.3867 13.0859 24.625L10.8477 22.3633C10.6016 22.1172 10.3438 22.0234 10.0039 22.0234H6.80469Z" fill="url(#paint0_linear_184_5916)"/>
<defs>
<linearGradient id="paint0_linear_184_5916" x1="14" y1="-1" x2="14" y2="27" gradientUnits="userSpaceOnUse">
<stop stop-color="#40B9FF"/>
<stop offset="1" stop-color="#34ED55"/>
</linearGradient>
</defs>
</svg>
