<svg width="12" height="21" viewBox="0 0 12 21" fill="none" xmlns="http://www.w3.org/2000/svg">
    <path d="M5.426 20.7h1.113v-1.958c2.918-.164 5.168-1.77 5.168-4.535v-.012c0-2.39-1.535-3.586-4.629-4.312l-.539-.13V3.767c1.875.175 3.211 1.312 3.387 2.976l.011.106h1.547l-.011-.164C11.297 4.27 9.27 2.559 6.539 2.359V.391H5.426v1.968C2.602 2.56.598 4.223.598 6.672v.012c0 2.273 1.476 3.527 4.465 4.242l.363.082v6.316c-2.297-.199-3.469-1.476-3.68-3.117l-.023-.14H.164l.012.152c.199 2.613 2.379 4.3 5.25 4.511v1.97zm-.13-11.24C3 8.91 2.157 7.997 2.157 6.614v-.011c0-1.418 1.172-2.649 3.27-2.836v5.718l-.13-.023zm1.536 1.888c2.531.597 3.316 1.453 3.316 2.941v.012c0 1.664-1.148 2.906-3.609 3.035v-6.059l.293.07z" fill="url(#b1g4d6kspa)"/>
    <defs>
        <linearGradient id="b1g4d6kspa" x1="6" y1="-9" x2="6" y2="29" gradientUnits="userSpaceOnUse">
            <stop stop-color="#FF5A5F"/>
            <stop offset="1" stop-color="#EDE664"/>
        </linearGradient>
    </defs>
</svg>
