<svg width="16" height="16" viewBox="0 0 16 16" fill="none" xmlns="http://www.w3.org/2000/svg">
  <path d="M8 15.5C12.1029 15.5 15.5 12.0956 15.5 8C15.5 3.89706 12.0956 0.5 7.99265 0.5C3.89706 0.5 0.5 3.89706 0.5 8C0.5 12.0956 3.90441 15.5 8 15.5ZM5.40441 11.2059C5.07353 11.2059 4.80147 10.9265 4.80147 10.5882C4.80147 10.4265 4.86765 10.2794 4.97794 10.1618L7.13235 8.00735L4.97794 5.85294C4.86765 5.73529 4.80147 5.58824 4.80147 5.42647C4.80147 5.08824 5.07353 4.82353 5.40441 4.82353C5.58088 4.82353 5.72059 4.88235 5.83088 5L7.99265 7.15441L10.1765 4.99265C10.3015 4.86765 10.4338 4.80882 10.5956 4.80882C10.9265 4.80882 11.1985 5.08088 11.1985 5.41177C11.1985 5.58088 11.1471 5.71324 11.0221 5.84559L8.86029 8.00735L11.0147 10.1544C11.1324 10.2794 11.1912 10.4191 11.1912 10.5882C11.1912 10.9265 10.9191 11.2059 10.5809 11.2059C10.4118 11.2059 10.2647 11.1324 10.1471 11.0221L7.99265 8.86765L5.85294 11.0221C5.73529 11.1397 5.58088 11.2059 5.40441 11.2059Z" fill="#636366"/>
</svg>
