<svg width="16" height="15" viewBox="0 0 16 15" fill="none" xmlns="http://www.w3.org/2000/svg">
  <path d="M0.939453 6.27637C0.939453 9.41113 3.48828 11.96 6.62305 11.96C7.91211 11.96 9.08398 11.5278 10.0361 10.8101L13.8521 14.6333C13.9839 14.7651 14.167 14.8384 14.3501 14.8384C14.7749 14.8384 15.0532 14.5161 15.0532 14.1279C15.0532 13.9375 14.98 13.7617 14.8555 13.6299L11.0542 9.82129C11.8379 8.84717 12.3066 7.6167 12.3066 6.27637C12.3066 3.1416 9.75781 0.592773 6.62305 0.592773C3.48828 0.592773 0.939453 3.1416 0.939453 6.27637ZM1.8916 6.27637C1.8916 3.66895 4.01562 1.54492 6.62305 1.54492C9.23047 1.54492 11.3545 3.66895 11.3545 6.27637C11.3545 8.88379 9.23047 11.0078 6.62305 11.0078C4.01562 11.0078 1.8916 8.88379 1.8916 6.27637Z" fill="#F7F7F7"/>
</svg>
