<svg width="22" height="21" viewBox="0 0 22 21" fill="none" xmlns="http://www.w3.org/2000/svg">
<path d="M11.0001 0C10.9115 7.68293e-05 10.8249 0.02695 10.7517 0.0770964C10.6786 0.127243 10.6223 0.198322 10.5902 0.281016L7.87717 7.27547L0.417798 7.65617C0.329004 7.66067 0.243654 7.69195 0.172991 7.74591C0.102328 7.79986 0.0496655 7.87396 0.0219415 7.95843C-0.00578258 8.04291 -0.00726807 8.1338 0.0176806 8.21914C0.0426293 8.30447 0.0928419 8.38025 0.161704 8.43648L5.97022 13.1854L4.06241 20.3912C4.03963 20.477 4.04333 20.5677 4.07301 20.6513C4.10269 20.735 4.15697 20.8077 4.22873 20.8599C4.30048 20.9122 4.38636 20.9415 4.47508 20.944C4.56379 20.9466 4.65121 20.9222 4.72584 20.8742L11.0001 16.8472L17.2744 20.8742C17.3491 20.9222 17.4365 20.9466 17.5252 20.944C17.6139 20.9415 17.6998 20.9122 17.7716 20.8599C17.8433 20.8077 17.8976 20.735 17.9273 20.6513C17.957 20.5677 17.9607 20.477 17.9379 20.3912L16.0301 13.1854L21.8386 8.43648C21.9074 8.38025 21.9577 8.30447 21.9826 8.21914C22.0076 8.1338 22.0061 8.04291 21.9783 7.95843C21.9506 7.87396 21.898 7.79986 21.8273 7.74591C21.7566 7.69195 21.6713 7.66067 21.5825 7.65617L14.1231 7.27547L11.4101 0.281016C11.378 0.198322 11.3217 0.127243 11.2486 0.0770964C11.1754 0.02695 11.0888 7.68293e-05 11.0001 0V0ZM11.0001 1.65602L13.4055 7.85898C13.4363 7.93821 13.4894 8.00682 13.5583 8.05653C13.6272 8.10625 13.7091 8.13494 13.794 8.13914L20.3983 8.47687L15.254 12.6835C15.1887 12.737 15.1401 12.8081 15.114 12.8884C15.088 12.9687 15.0856 13.0548 15.1071 13.1364L16.7975 19.5224L11.2382 15.9534C11.1672 15.9078 11.0846 15.8835 11.0001 15.8835C10.9157 15.8835 10.8331 15.9078 10.7621 15.9534L5.2028 19.5224L6.89319 13.1364C6.91472 13.0548 6.91231 12.9687 6.88626 12.8884C6.8602 12.8081 6.81159 12.737 6.74624 12.6835L1.60202 8.47687L8.20631 8.13914C8.2912 8.13494 8.37305 8.10625 8.44198 8.05653C8.51092 8.00682 8.56397 7.93821 8.59475 7.85898L11.0001 1.65602Z" fill="white"/>
</svg>
