<svg width="22" height="21" viewBox="0 0 22 21" fill="none" xmlns="http://www.w3.org/2000/svg">
<path d="M4.50387 20.944C4.41587 20.944 4.32787 20.9 4.23987 20.856C4.10787 20.768 4.01987 20.548 4.06387 20.372L5.99987 13.156L0.19187 8.448C0.0158699 8.36 -0.0281301 8.14 0.0158699 7.964C0.0598699 7.788 0.23587 7.656 0.41187 7.656L7.89187 7.26L10.5759 0.264C10.6639 0.132 10.8399 0 11.0159 0C11.1919 0 11.3679 0.132 11.4119 0.264L14.0959 7.26L21.5759 7.656C21.7519 7.656 21.9279 7.788 21.9719 7.964C22.0159 8.14 21.9719 8.316 21.8399 8.448L16.0319 13.156L17.9679 20.372C18.0119 20.548 17.9679 20.724 17.7919 20.856C17.6599 20.944 17.4399 20.988 17.3079 20.856L11.0159 16.808L4.72387 20.856C4.63587 20.944 4.59187 20.944 4.50387 20.944Z" fill="white"/>
</svg>
