<svg width="55" height="56" viewBox="0 0 55 56" fill="none" xmlns="http://www.w3.org/2000/svg">
  <path d="M27.5 55.6836C42.5117 55.6836 54.9258 43.2695 54.9258 28.2578C54.9258 13.2188 42.5117 0.832031 27.4727 0.832031C12.4609 0.832031 0.0742188 13.2188 0.0742188 28.2578C0.0742188 43.2695 12.4883 55.6836 27.5 55.6836ZM27.5 52.1289C14.2656 52.1289 3.62891 41.4648 3.62891 28.2578C3.62891 15.0234 14.2656 4.35938 27.4727 4.35938C40.707 4.35938 51.3711 15.0234 51.3984 28.2578C51.3984 41.4648 40.7344 52.1289 27.5 52.1289ZM24.5469 41.2461C25.2305 41.2461 25.8047 40.8906 26.2148 40.2617L39.5039 19.5078C39.75 19.125 39.9961 18.6328 39.9961 18.1953C39.9961 17.2656 39.1484 16.6367 38.2734 16.6367C37.7266 16.6367 37.207 16.9648 36.7969 17.5664L24.4375 37.1172L18.1484 29.3516C17.6562 28.6953 17.1641 28.5039 16.5898 28.5039C15.6875 28.5039 14.9492 29.2422 14.9492 30.1719C14.9492 30.6367 15.1406 31.1016 15.4414 31.5117L22.7422 40.2617C23.2891 40.9453 23.8359 41.2461 24.5469 41.2461Z" fill="url(#paint0_linear_328_4392)"/>
  <defs>
    <linearGradient id="paint0_linear_328_4392" x1="27.5" y1="-3" x2="27.5" y2="59" gradientUnits="userSpaceOnUse">
      <stop stop-color="#40B9FF"/>
      <stop offset="1" stop-color="#34ED55"/>
    </linearGradient>
  </defs>
</svg>
