<svg width="17" height="21" viewBox="0 0 17 21" fill="none" xmlns="http://www.w3.org/2000/svg">
    <path d="M.394 5.161a.614.614 0 0 0 0 .897l4.517 4.456c.123.123.29.193.457.193a.568.568 0 0 0 .589-.589.586.586 0 0 0-.185-.43L3.733 7.691 2.028 6.137l1.96.061h12.173a.573.573 0 0 0 .589-.589.575.575 0 0 0-.589-.597H3.988l-1.96.061 1.705-1.547 2.04-2.004a.572.572 0 0 0 .184-.43.568.568 0 0 0-.589-.59.627.627 0 0 0-.457.203L.394 5.161zm16.163 10.995a.59.59 0 0 0 0-.887l-4.51-4.465a.654.654 0 0 0-.456-.194.563.563 0 0 0-.589.59c0 .166.053.307.184.43l2.04 1.995 1.705 1.556-1.97-.062H.799a.58.58 0 0 0-.598.589c0 .352.264.598.598.598h12.164l1.969-.062-1.705 1.547-2.04 2.004a.542.542 0 0 0-.184.43c0 .343.237.59.589.59.167 0 .334-.07.457-.203l4.509-4.456z" fill="#999"/>
</svg>
