<svg width="17" height="21" viewBox="0 0 17 21" fill="none" xmlns="http://www.w3.org/2000/svg">
<path d="M0.393555 5.16113C0.129883 5.41602 0.138672 5.81152 0.393555 6.05762L4.91113 10.5137C5.03418 10.6367 5.20117 10.707 5.36816 10.707C5.71094 10.707 5.95703 10.4609 5.95703 10.1182C5.95703 9.95117 5.89551 9.81055 5.77246 9.6875L3.7334 7.69238L2.02832 6.13672L3.98828 6.19824H16.1611C16.4951 6.19824 16.75 5.95215 16.75 5.60938C16.75 5.25781 16.4951 5.01172 16.1611 5.01172H3.98828L2.02832 5.07324L3.7334 3.52637L5.77246 1.52246C5.89551 1.39941 5.95703 1.26758 5.95703 1.0918C5.95703 0.749023 5.71094 0.50293 5.36816 0.50293C5.20117 0.50293 5.03418 0.573242 4.91113 0.705078L0.393555 5.16113ZM16.5566 16.1562C16.8291 15.9014 16.8203 15.5146 16.5566 15.2686L12.0479 10.8037C11.9248 10.6807 11.7578 10.6104 11.5908 10.6104C11.2393 10.6104 11.002 10.8564 11.002 11.1992C11.002 11.3662 11.0547 11.5068 11.1865 11.6299L13.2256 13.625L14.9307 15.1807L12.9619 15.1191H0.797852C0.463867 15.1191 0.200195 15.3652 0.200195 15.708C0.200195 16.0596 0.463867 16.3057 0.797852 16.3057H12.9619L14.9307 16.2441L13.2256 17.791L11.1865 19.7949C11.0547 19.918 11.002 20.0498 11.002 20.2256C11.002 20.5684 11.2393 20.8145 11.5908 20.8145C11.7578 20.8145 11.9248 20.7441 12.0479 20.6123L16.5566 16.1562Z" fill="#F7F7F7"/>
</svg>
