<svg width="24" height="25" viewBox="0 0 24 25" fill="none" xmlns="http://www.w3.org/2000/svg">
<path d="M12.1484 24.293C18.582 24.293 23.9023 18.9727 23.9023 12.5391C23.9023 6.09375 18.582 0.785156 12.1367 0.785156C5.70312 0.785156 0.394531 6.09375 0.394531 12.5391C0.394531 18.9727 5.71484 24.293 12.1484 24.293ZM12.1484 22.7695C6.47656 22.7695 1.91797 18.1992 1.91797 12.5391C1.91797 6.86719 6.47656 2.29688 12.1367 2.29688C17.8086 2.29688 22.3789 6.86719 22.3906 12.5391C22.3906 18.1992 17.8203 22.7695 12.1484 22.7695ZM6.73438 14.1211C7.61328 14.1211 8.32812 13.4062 8.32812 12.5273C8.32812 11.6484 7.61328 10.9336 6.73438 10.9336C5.85547 10.9336 5.14062 11.6484 5.14062 12.5273C5.14062 13.4062 5.85547 14.1211 6.73438 14.1211ZM12.1367 14.1211C13.0156 14.1211 13.7305 13.4062 13.7305 12.5273C13.7305 11.6484 13.0156 10.9336 12.1367 10.9336C11.2578 10.9336 10.543 11.6484 10.543 12.5273C10.543 13.4062 11.2578 14.1211 12.1367 14.1211ZM17.5508 14.1211C18.4297 14.1211 19.1445 13.4062 19.1445 12.5273C19.1445 11.6484 18.4297 10.9336 17.5508 10.9336C16.6602 10.9336 15.9453 11.6484 15.9453 12.5273C15.9453 13.4062 16.6602 14.1211 17.5508 14.1211Z" fill="#FF5A5F"/>
</svg>
