<svg width="18" height="19" viewBox="0 0 18 19" fill="none" xmlns="http://www.w3.org/2000/svg">
<path d="M9 18.4697C13.8252 18.4697 17.8154 14.4795 17.8154 9.6543C17.8154 4.82031 13.8252 0.838867 8.99121 0.838867C4.16602 0.838867 0.18457 4.82031 0.18457 9.6543C0.18457 14.4795 4.1748 18.4697 9 18.4697ZM9 17.3271C4.74609 17.3271 1.32715 13.8994 1.32715 9.6543C1.32715 5.40039 4.74609 1.97266 8.99121 1.97266C13.2451 1.97266 16.6729 5.40039 16.6816 9.6543C16.6816 13.8994 13.2539 17.3271 9 17.3271ZM4.21875 10.5156H8.99121C9.27246 10.5156 9.4834 10.3047 9.4834 10.0322V3.87109C9.4834 3.59863 9.27246 3.39648 8.99121 3.39648C8.72754 3.39648 8.5166 3.59863 8.5166 3.87109V9.55762H4.21875C3.94629 9.55762 3.74414 9.76855 3.74414 10.0322C3.74414 10.3047 3.94629 10.5156 4.21875 10.5156Z" fill="#999999"/>
</svg>
