<svg width="56" height="56" viewBox="0 0 56 56" fill="none" xmlns="http://www.w3.org/2000/svg">
<path d="M28 55.6836C43.0117 55.6836 55.4258 43.2695 55.4258 28.2578C55.4258 13.2188 43.0117 0.832031 27.9727 0.832031C12.9609 0.832031 0.574219 13.2188 0.574219 28.2578C0.574219 43.2695 12.9883 55.6836 28 55.6836ZM28 52.1289C14.7656 52.1289 4.12891 41.4648 4.12891 28.2578C4.12891 15.0234 14.7656 4.35938 27.9727 4.35938C41.207 4.35938 51.8711 15.0234 51.8984 28.2578C51.8984 41.4648 41.2344 52.1289 28 52.1289ZM14.2734 31.5391C14.2734 37.7461 18.7578 41.6836 24.9922 41.6836H28.9844C29.9414 41.6836 30.625 41.1367 30.625 40.1523C30.625 39.168 29.9414 38.6211 29.0391 38.6211H24.9922C20.5352 38.6211 17.3906 35.832 17.3906 31.4023C17.3906 27.0273 20.5898 24.4844 24.9648 24.4844H34.125L37.2422 24.375L35.7656 25.4961L31.6367 29.5156C31.3086 29.8164 31.1445 30.2266 31.1445 30.6641C31.1445 31.5391 31.8008 32.2227 32.6758 32.2227C33.1133 32.2227 33.4688 32.0586 33.7695 31.7578L41.0703 24.3203C41.4258 23.9648 41.6719 23.5 41.6719 22.9531C41.6719 22.4336 41.4258 21.9688 41.0703 21.5859L33.7969 14.2031C33.4961 13.875 33.1406 13.7109 32.6758 13.7109C31.8008 13.7109 31.1445 14.3945 31.1445 15.2969C31.1445 15.7617 31.3359 16.1445 31.6367 16.418L35.3828 20.082L37.2422 21.5586L34.125 21.4766H24.9648C18.7305 21.4766 14.2734 25.332 14.2734 31.5391Z" fill="url(#paint0_linear_216_6238)"/>
<defs>
<linearGradient id="paint0_linear_216_6238" x1="28" y1="-3" x2="28" y2="59" gradientUnits="userSpaceOnUse">
<stop stop-color="#FF5A5F"/>
<stop offset="1" stop-color="#EDE664"/>
</linearGradient>
</defs>
</svg>
