<svg width="20" height="24" viewBox="0 0 20 24" fill="none" xmlns="http://www.w3.org/2000/svg">
<path d="M9.98828 23.5039C10.2109 23.5039 10.5039 23.4102 10.7734 23.2578C17.3359 19.4609 19.5039 18.0312 19.5039 14V5.09375C19.5039 3.83984 19.0352 3.42969 17.957 2.99609C16.293 2.32812 12.5898 0.957031 10.9258 0.382812C10.6211 0.277344 10.3047 0.207031 9.98828 0.207031C9.67188 0.207031 9.36719 0.289062 9.0625 0.382812C7.39844 0.921875 3.69531 2.33984 2.03125 2.99609C0.953125 3.41797 0.484375 3.83984 0.484375 5.09375V14C0.484375 18.0312 2.67578 19.4258 9.21484 23.2578C9.47266 23.4102 9.77734 23.5039 9.98828 23.5039ZM9.98828 21.8984C9.80078 21.8984 9.57812 21.8047 9.30859 21.6289C3.87109 18.2539 1.92578 17.2812 1.92578 13.7188V5.36328C1.92578 4.77734 2.03125 4.56641 2.47656 4.39062C4.03516 3.76953 7.86719 2.39844 9.42578 1.78906C9.64844 1.69531 9.84766 1.64844 9.98828 1.64844C10.1289 1.64844 10.3281 1.70703 10.5508 1.78906C12.1211 2.39844 15.9297 3.81641 17.5117 4.39062C17.957 4.55469 18.0625 4.77734 18.0625 5.36328V13.7188C18.0625 17.2812 16.0938 18.2305 10.6797 21.6289C10.3984 21.8047 10.1875 21.8984 9.98828 21.8984Z" fill="url(#paint0_linear_184_5926)"/>
<defs>
<linearGradient id="paint0_linear_184_5926" x1="10" y1="-3" x2="10" y2="25" gradientUnits="userSpaceOnUse">
<stop stop-color="#40B9FF"/>
<stop offset="1" stop-color="#34ED55"/>
</linearGradient>
</defs>
</svg>
