<svg width="16" height="20" viewBox="0 0 16 20" fill="none" xmlns="http://www.w3.org/2000/svg">
<path d="M7.99121 13.0273C8.29004 13.0273 8.52734 12.79 8.52734 12.5V3.03418L8.49219 1.75977L9.27441 2.56836L10.7686 4.12402C10.8652 4.22949 11.0059 4.28223 11.1377 4.28223C11.4189 4.28223 11.6299 4.08008 11.6299 3.80762C11.6299 3.6582 11.5771 3.55273 11.4717 3.44727L8.38672 0.423828C8.25488 0.291992 8.13184 0.248047 7.99121 0.248047C7.85938 0.248047 7.73633 0.291992 7.60449 0.423828L4.51074 3.44727C4.40527 3.55273 4.35254 3.6582 4.35254 3.80762C4.35254 4.08008 4.55469 4.28223 4.83594 4.28223C4.96777 4.28223 5.11719 4.22949 5.21387 4.12402L6.70801 2.56836L7.49902 1.75977L7.45508 3.03418V12.5C7.45508 12.79 7.70117 13.0273 7.99121 13.0273ZM2.9375 19.7949H13.0537C14.7676 19.7949 15.6465 18.916 15.6465 17.2285V8.24609C15.6465 6.5498 14.7676 5.6709 13.0537 5.6709H10.5488V6.76074H13.0273C14.0029 6.76074 14.5566 7.28809 14.5566 8.29883V17.167C14.5566 18.1865 14.0029 18.7051 13.0273 18.7051H2.95508C1.9707 18.7051 1.43457 18.1865 1.43457 17.167V8.29883C1.43457 7.28809 1.9707 6.76074 2.95508 6.76074H5.45117V5.6709H2.9375C1.22363 5.6709 0.344727 6.54102 0.344727 8.24609V17.2285C0.344727 18.9248 1.22363 19.7949 2.9375 19.7949Z" fill="#F7F7F7"/>
</svg>
