<svg width="23" height="31" viewBox="0 0 23 31" fill="none" xmlns="http://www.w3.org/2000/svg">
<path d="M11.5 0.046875C6.684 0.046875 2.76562 3.96525 2.76562 8.78125V12.3742C1.2006 12.928 0.078125 14.417 0.078125 16.1719V26.9219C0.078125 29.1485 1.88278 30.9531 4.10938 30.9531H18.8906C21.1172 30.9531 22.9219 29.1485 22.9219 26.9219V16.1719C22.9219 14.417 21.7994 12.928 20.2344 12.3742V8.78125C20.2344 3.96525 16.316 0.046875 11.5 0.046875ZM11.5 2.73438C14.8345 2.73438 17.5469 5.44741 17.5469 8.78125V12.1406H5.45312V8.78125C5.45312 5.44741 8.16548 2.73438 11.5 2.73438Z" fill="white"/>
</svg>
