<svg width="18" height="18" viewBox="0 0 18 18" fill="none" xmlns="http://www.w3.org/2000/svg">
  <path d="M0.476074 17.4268C0.779297 17.73 1.26221 17.73 1.5542 17.4268L9 9.99219L16.4346 17.4268C16.7266 17.73 17.2207 17.73 17.5127 17.4268C17.8047 17.1348 17.8047 16.6519 17.5127 16.3599L10.0669 8.91406L17.5127 1.46826C17.8047 1.17627 17.8159 0.682129 17.5127 0.390137C17.2095 0.0981445 16.7266 0.0981445 16.4346 0.390137L9 7.83594L1.5542 0.390137C1.26221 0.0981445 0.768066 0.0869141 0.476074 0.390137C0.184082 0.693359 0.184082 1.17627 0.476074 1.46826L7.92188 8.91406L0.476074 16.3599C0.184082 16.6519 0.172852 17.1348 0.476074 17.4268Z" fill="#FF5A5F"/>
</svg>
